<svg width="750" height="750" viewBox="0 0 750 750" fill="none" xmlns="http://www.w3.org/2000/svg">
<g clip-path="url(#clip0_2244_5634)">
<path d="M1461 143.813C1461 451.778 1141.33 701.432 747 701.432C448.131 701.432 258.758 664.197 148.579 379.03C114.586 314.025 33 218.367 33 143.813C33 -164.152 352.669 -413.807 747 -413.807C1141.33 -413.807 1461 -164.152 1461 143.813Z" fill="url(#paint0_linear_2244_5634)" fill-opacity="0.2"/>
<path d="M1256.49 -13.6946C1303.88 225.05 1345.81 530.526 1083.93 580.441C885.45 618.272 499.492 640.897 284.983 422.392C252.407 376.301 149.642 278.72 138.171 220.923C90.7891 -17.8211 298.536 -218.075 560.413 -267.99C822.29 -317.905 1209.11 -252.439 1256.49 -13.6946Z" fill="url(#paint1_linear_2244_5634)" fill-opacity="0.5"/>
<ellipse cx="767.062" cy="31.9556" rx="523.99" ry="447.82" fill="url(#paint2_linear_2244_5634)" fill-opacity="0.7"/>
</g>
<defs>
<linearGradient id="paint0_linear_2244_5634" x1="7.53871" y1="122.137" x2="684.344" y2="701.217" gradientUnits="userSpaceOnUse">
<stop stop-color="#DDE4EE"/>
<stop offset="1" stop-color="#CAD4E3"/>
</linearGradient>
<linearGradient id="paint1_linear_2244_5634" x1="107.297" y1="214.423" x2="729.071" y2="601.288" gradientUnits="userSpaceOnUse">
<stop stop-color="#DDE4EE"/>
<stop offset="1" stop-color="#CAD4E3"/>
</linearGradient>
<linearGradient id="paint2_linear_2244_5634" x1="382.552" y1="-22.9454" x2="766.805" y2="479.972" gradientUnits="userSpaceOnUse">
<stop stop-color="#DDE4EE"/>
<stop offset="1" stop-color="#CAD4E3"/>
</linearGradient>
<clipPath id="clip0_2244_5634">
<rect width="750" height="750" fill="white"/>
</clipPath>
</defs>
</svg>
