<svg width="24" height="24" viewBox="0 0 24 24" fill="none" xmlns="http://www.w3.org/2000/svg">
<path d="M18.3546 5.67498H5.16709C4.45133 5.67498 3.87109 6.25522 3.87109 6.97098V18.503C3.87109 19.2187 4.45133 19.799 5.16709 19.799H18.3546C19.0704 19.799 19.6506 19.2187 19.6506 18.503V6.97098C19.6506 6.25522 19.0704 5.67498 18.3546 5.67498Z" fill="#5A81FF"/>
<path d="M12.2917 10.2964L13.3929 8.68122L11.7609 7.39098L10.1289 8.68122L11.1345 10.3118L10.125 19.799H13.3041L12.2917 10.2964Z" fill="#3036D1"/>
<path d="M9.60565 9.1137L7.43365 5.94714L8.58085 3.95898L11.7609 7.39098L10.1289 9.1521C9.98245 9.31002 9.72757 9.2913 9.60565 9.1137Z" fill="#91ABFF"/>
<path d="M13.9161 9.1137L16.0881 5.94714L14.9409 3.95898L11.7609 7.39098L13.3929 9.1521C13.5393 9.31002 13.7941 9.2913 13.9161 9.1137Z" fill="#91ABFF"/>
<path d="M8.58085 3.95898H14.9409L11.7609 7.39098L8.58085 3.95898Z" fill="#466CFB"/>
</svg>
