<svg width="24" height="24" viewBox="0 0 24 24" fill="none" xmlns="http://www.w3.org/2000/svg">
<path d="M12.3035 10.3085L13.2227 9.38931C13.3727 9.23931 13.3727 8.99631 13.2227 8.84631L12.3035 7.92711C12.2063 7.82991 12.1685 7.68891 12.2039 7.55631L12.5405 6.30051C12.5951 6.09591 12.4739 5.88531 12.2687 5.83011L11.0129 5.49351C10.8803 5.45811 10.7771 5.35431 10.7411 5.22171L10.4045 3.96591C10.3499 3.76131 10.1393 3.63951 9.93414 3.69411L8.67834 4.03071C8.54574 4.06611 8.40414 4.02831 8.30754 3.93111L7.38834 3.01191C7.23834 2.86191 6.99534 2.86191 6.84534 3.01191L5.92614 3.93111C5.82894 4.02831 5.68794 4.06611 5.55534 4.03071L4.29954 3.69411C4.09494 3.63951 3.88434 3.76071 3.82914 3.96591L3.49254 5.22171C3.45714 5.35431 3.35334 5.45751 3.22074 5.49351L1.96494 5.83011C1.76034 5.88471 1.63854 6.09531 1.69314 6.30051L2.02974 7.55631C2.06514 7.68891 2.02734 7.83051 1.93014 7.92711L1.01094 8.84631C0.860938 8.99631 0.860938 9.23931 1.01094 9.38931L1.93014 10.3085C2.02734 10.4057 2.06514 10.5467 2.02974 10.6793L1.69314 11.9351C1.63854 12.1397 1.75974 12.3503 1.96494 12.4055L3.22074 12.7421C3.35334 12.7775 3.45654 12.8813 3.49254 13.0139L3.82914 14.2697C3.88374 14.4743 4.09434 14.5961 4.29954 14.5415L5.55534 14.2049C5.68794 14.1695 5.82954 14.2073 5.92614 14.3045L6.84534 15.2237C6.99534 15.3737 7.23834 15.3737 7.38834 15.2237L8.30754 14.3045C8.40474 14.2073 8.54574 14.1695 8.67834 14.2049L9.93414 14.5415C10.1387 14.5961 10.3493 14.4749 10.4045 14.2697L10.7411 13.0139C10.7765 12.8813 10.8803 12.7781 11.0129 12.7421L12.2687 12.4055C12.4733 12.3509 12.5951 12.1403 12.5405 11.9351L12.2039 10.6793C12.1685 10.5467 12.2063 10.4051 12.3035 10.3085Z" fill="#FFCD00"/>
<path d="M7.11814 12.7705C9.11962 12.7705 10.7421 11.1479 10.7421 9.14646C10.7421 7.14498 9.11962 5.52246 7.11814 5.52246C5.11666 5.52246 3.49414 7.14498 3.49414 9.14646C3.49414 11.1479 5.11666 12.7705 7.11814 12.7705Z" fill="#FFAA00"/>
<path d="M18.6568 21.101H5.41602V14.2412L18.481 15.1226L18.6568 21.101Z" fill="#E5E8EB"/>
<path d="M13.8224 16.9728C16.8438 16.9728 19.2932 14.5235 19.2932 11.5021C19.2932 8.48061 16.8438 6.03125 13.8224 6.03125C10.8009 6.03125 8.35156 8.48061 8.35156 11.5021C8.35156 14.5235 10.8009 16.9728 13.8224 16.9728Z" fill="#E5E8EB"/>
<path d="M18.4615 21.1007C21.0236 21.1007 23.1007 19.0236 23.1007 16.4615C23.1007 13.8993 21.0236 11.8223 18.4615 11.8223C15.8993 11.8223 13.8223 13.8993 13.8223 16.4615C13.8223 19.0236 15.8993 21.1007 18.4615 21.1007Z" fill="#E5E8EB"/>
<path d="M5.41678 21.1011C7.79569 21.1011 9.72418 19.1726 9.72418 16.7937C9.72418 14.4148 7.79569 12.4863 5.41678 12.4863C3.03786 12.4863 1.10938 14.4148 1.10938 16.7937C1.10938 19.1726 3.03786 21.1011 5.41678 21.1011Z" fill="#E5E8EB"/>
<path d="M8.34982 15.8207C10.297 15.8207 11.8754 14.2423 11.8754 12.2951C11.8754 10.348 10.297 8.76953 8.34982 8.76953C6.40268 8.76953 4.82422 10.348 4.82422 12.2951C4.82422 14.2423 6.40268 15.8207 8.34982 15.8207Z" fill="#E5E8EB"/>
</svg>
