<svg width="24" height="25" viewBox="0 0 24 25" fill="none" xmlns="http://www.w3.org/2000/svg">
<g clip-path="url(#clip0_2213_5839)">
<path d="M11.9695 4.85102C14.2623 4.77485 16.4852 5.8291 17.8084 7.63304C18.8604 9.062 19.2266 10.7938 18.8604 12.408L18.8084 12.6136L18.8955 12.64C21.0895 13.3387 22.3898 15.6065 21.8956 17.8645L21.8448 18.0693C21.2218 20.3943 18.8925 21.8045 16.5748 21.2974L16.3706 21.2478L4.89736 18.1736L4.68499 18.1084C1.87364 17.2412 0.170072 14.415 0.80218 11.6193L0.853255 11.4094C1.56423 8.756 4.15906 7.10846 6.87627 7.41517L6.99052 7.42922L7.10498 7.27251C8.16468 5.8793 9.84306 4.99766 11.714 4.8654L11.9704 4.85128L11.9695 4.85102Z" fill="black"/>
</g>
<defs>
<clipPath id="clip0_2213_5839">
<rect width="24" height="24" fill="white" transform="translate(0 0.808594)"/>
</clipPath>
</defs>
</svg>
