<svg width="24" height="24" viewBox="0 0 24 24" fill="none" xmlns="http://www.w3.org/2000/svg">
<path d="M6.16021 17.9193V5.38792C6.16021 4.86328 6.58549 4.43848 7.10965 4.43848H19.2104C19.7351 4.43848 20.1599 4.86376 20.1599 5.38792V17.9505C20.1599 18.706 19.5474 19.318 18.7924 19.318H4.76197L6.16021 17.9193Z" fill="#D0D5DA"/>
<path d="M8.30389 9.57256H18.0042V7.08232H8.30389V9.57256Z" fill="#AFB7C0"/>
<path d="M4.76053 19.3185C3.98821 19.3185 3.36133 18.6916 3.36133 17.9193V8.03128C3.36133 7.50712 3.78661 7.08184 4.31077 7.08184H6.15973L6.16021 17.9193C6.16021 18.6916 5.53285 19.3185 4.76053 19.3185Z" fill="#8A94A0"/>
<path d="M18.0047 11.2838H8.31589V11.758H18.0047V11.2838Z" fill="#AFB7C0"/>
<path d="M18.0047 13.0247H8.31589V13.499H18.0047V13.0247Z" fill="#AFB7C0"/>
<path d="M18.0047 14.7662H8.31589V15.2404H18.0047V14.7662Z" fill="#AFB7C0"/>
<path d="M18.0047 16.5071H8.31589V16.9814H18.0047V16.5071Z" fill="#AFB7C0"/>
</svg>
