<svg width="24" height="25" viewBox="0 0 24 25" fill="none" xmlns="http://www.w3.org/2000/svg">
<path d="M11.2114 2.83984L11.3286 2.83759C11.5532 2.84623 11.7683 2.93028 11.9393 3.07618C12.1103 3.22209 12.2271 3.42133 12.271 3.64178L12.2872 3.75786L12.6026 7.74541L12.6194 7.89454C12.6926 8.36641 12.9323 8.79651 13.295 9.10708C13.6577 9.41764 14.1196 9.58818 14.5971 9.58786L14.7541 9.58146L18.7416 9.26603L18.8588 9.26378C19.0834 9.27242 19.2985 9.35647 19.4695 9.50237C19.6405 9.64828 19.7573 9.84753 19.8012 10.068L19.8174 10.1841L20.5271 19.156C20.5875 19.9189 20.3541 20.6759 19.8747 21.2723C19.3952 21.8687 18.706 22.2594 17.9481 22.3644L17.773 22.3833L7.80415 23.1718C7.04133 23.2322 6.28426 22.9988 5.68785 22.5194C5.09144 22.04 4.70078 21.3508 4.59579 20.5928L4.57692 20.4178L3.4729 6.46136C3.41252 5.69854 3.64591 4.94147 4.12533 4.34506C4.60475 3.74865 5.29395 3.35798 6.05193 3.25299L6.22699 3.23413L11.2114 2.83984ZM14.9715 17.7698C14.1779 17.3057 13.2613 17.0958 12.3449 17.1683C11.4284 17.2408 10.5562 17.5922 9.84549 18.1753C9.73812 18.2565 9.64825 18.3586 9.58129 18.4755C9.51433 18.5923 9.47165 18.7214 9.4558 18.8551C9.43996 18.9888 9.45128 19.1244 9.48909 19.2536C9.5269 19.3828 9.59042 19.5031 9.67583 19.6072C9.76125 19.7112 9.86681 19.797 9.98618 19.8593C10.1055 19.9216 10.2363 19.9591 10.3705 19.9697C10.5047 19.9802 10.6397 19.9636 10.7673 19.9207C10.895 19.8778 11.0126 19.8096 11.1133 19.7201C11.5082 19.3959 11.993 19.2005 12.5024 19.1602C13.0118 19.1199 13.5214 19.2367 13.9624 19.4948C14.1904 19.6163 14.4566 19.6449 14.7052 19.5746C14.9538 19.5042 15.1655 19.3403 15.296 19.1173C15.4265 18.8943 15.4655 18.6294 15.405 18.3782C15.3446 18.127 15.1892 17.909 14.9715 17.7698ZM10.0122 12.9659L10.0012 12.9668C9.73685 12.9877 9.4916 13.1128 9.31944 13.3145C9.14727 13.5163 9.0623 13.7782 9.08322 14.0425C9.10413 14.3069 9.22922 14.5522 9.43096 14.7244C9.6327 14.8965 9.89457 14.9815 10.159 14.9606L10.1689 14.9598C10.4333 14.9389 10.6786 14.8138 10.8507 14.612C11.0229 14.4103 11.1079 14.1484 11.087 13.884C11.066 13.6197 10.941 13.3744 10.7392 13.2022C10.5375 13.0301 10.2766 12.945 10.0122 12.9659ZM13.9988 12.6506L13.9878 12.6515C13.7234 12.6724 13.4781 12.7975 13.306 12.9992C13.1338 13.2009 13.0488 13.4628 13.0698 13.7272C13.0907 13.9916 13.2158 14.2368 13.4175 14.409C13.6192 14.5812 13.8811 14.6661 14.1455 14.6452L14.1555 14.6444C14.4199 14.6235 14.6651 14.4984 14.8373 14.2967C15.0094 14.0949 15.0944 13.8331 15.0735 13.5687C15.0526 13.3043 14.9275 13.059 14.7258 12.8869C14.524 12.7147 14.2621 12.6297 13.9978 12.6507" fill="black"/>
<path d="M18.5839 7.27226L14.5964 7.58769L14.2799 3.59923L18.5839 7.27226Z" fill="black"/>
</svg>
