<svg width="24" height="24" viewBox="0 0 24 24" fill="none" xmlns="http://www.w3.org/2000/svg">
<path d="M15.8696 4.98438H6.94073C4.47541 4.98438 2.47656 6.98322 2.47656 9.44854V16.5136C2.47656 17.1458 2.98894 17.6587 3.62163 17.6587H19.1892C19.8214 17.6587 20.3343 17.1463 20.3343 16.5136V9.44854C20.3343 6.9827 18.3349 4.98438 15.8696 4.98438Z" fill="#1E6EF4"/>
<path d="M7.20018 5.76875C9.2824 5.90331 10.8575 7.72591 10.8575 9.81236V16.8833H3.76709C3.35551 16.8833 3.02148 16.5492 3.02148 16.1376V9.6778C3.02148 7.42777 4.91849 5.621 7.20018 5.76875Z" fill="#082B9C"/>
<path d="M21.3296 12.3468C21.5465 12.6312 22.0003 12.4776 22.0003 12.1204V9.5052C22.0003 9.31102 21.8431 9.1543 21.6494 9.1543H14.0556C13.7131 9.1543 13.4355 9.43186 13.4355 9.77432C13.4355 10.1168 13.7131 10.3943 14.0556 10.3943H19.8416L21.3296 12.3468Z" fill="#0A37C7"/>
<path d="M10.2324 17.6582H13.0492V19.1141C13.0492 19.3225 12.8798 19.4919 12.6714 19.4919H10.6102C10.4018 19.4919 10.2324 19.3225 10.2324 19.1141V17.6582Z" fill="#0A37C7"/>
<path d="M5.92773 11.0195V15.5507C5.92773 15.8657 6.04171 16.1517 6.22482 16.3802L9.36081 13.8806L5.92826 11.0201L5.92773 11.0195Z" fill="#D0D5DA"/>
<path d="M9.95108 14.3732L9.36061 13.8809L6.22461 16.3805C6.46892 16.6849 6.83936 16.8839 7.26044 16.8839H10.8587V14.6908C10.5416 14.6908 10.2239 14.5848 9.95108 14.3732Z" fill="#E5E9EE"/>
<path d="M9.95129 14.3734C10.2246 14.585 10.5418 14.691 10.8584 14.691V14.0752C10.5412 14.0752 10.2241 13.9813 9.95129 13.7929L5.92773 11.0205L9.36029 13.8811L9.95076 14.3734H9.95129Z" fill="#AFB7C0"/>
<path d="M10.8589 14.0744V9.81231C10.8589 9.58911 10.8373 9.36959 10.8024 9.1543H7.26065C6.52454 9.1543 5.92773 9.7511 5.92773 10.4867V11.0196L9.95129 13.7921C10.2246 13.9805 10.5423 14.0744 10.8589 14.0744Z" fill="#E5E9EE"/>
</svg>
