<svg width="24" height="25" viewBox="0 0 24 25" fill="none" xmlns="http://www.w3.org/2000/svg">
<path d="M10.8478 3.88223C13.2152 3.57672 15.6069 4.22413 17.4969 5.68204C19.3868 7.13995 20.6203 9.28894 20.9258 11.6563C20.9571 11.8992 20.8982 12.1452 20.7602 12.3475C20.6222 12.5499 20.4147 12.6946 20.1771 12.7541L20.062 12.776L13.1196 13.672L13.7595 18.6309C13.7924 18.8836 13.9206 19.1143 14.1179 19.2757C14.3151 19.4371 14.5666 19.5171 14.8208 19.4993C15.0751 19.4816 15.313 19.3674 15.4859 19.1802C15.6588 18.9929 15.7537 18.7467 15.7511 18.4918L15.7431 18.3749C15.7091 18.1118 15.7811 17.8461 15.9431 17.6361C16.1051 17.4261 16.3438 17.2891 16.6069 17.2551C16.8699 17.2212 17.1356 17.2931 17.3456 17.4551C17.5556 17.6171 17.6927 17.8559 17.7266 18.1189C17.8273 18.8933 17.6221 19.6764 17.1546 20.3019C16.687 20.9274 15.994 21.3459 15.2228 21.4685C14.4516 21.5911 13.663 21.4082 13.0245 20.9586C12.386 20.509 11.9479 19.8282 11.8035 19.0608L11.776 18.8869L11.136 13.928L4.19359 14.8239C3.95067 14.8553 3.7047 14.7963 3.50234 14.6583C3.29998 14.5203 3.1553 14.3129 3.09574 14.0753L3.07382 13.9602C2.76831 11.5928 3.41572 9.20112 4.87363 7.31114C6.33154 5.42116 8.48053 4.18775 10.8478 3.88223Z" fill="black"/>
</svg>
