<svg width="24" height="25" viewBox="0 0 24 25" fill="none" xmlns="http://www.w3.org/2000/svg">
<path d="M12.0008 19.8086C12.2458 19.8086 12.4822 19.8986 12.6652 20.0613C12.8483 20.2241 12.9652 20.4483 12.9938 20.6916L13.0008 20.8086V21.8086C13.0006 22.0635 12.903 22.3086 12.728 22.494C12.553 22.6793 12.3139 22.7908 12.0595 22.8058C11.805 22.8207 11.5545 22.7379 11.359 22.5743C11.1636 22.4107 11.0379 22.1787 11.0078 21.9256L11.0008 21.8086V20.8086C11.0008 20.5434 11.1062 20.289 11.2937 20.1015C11.4813 19.9139 11.7356 19.8086 12.0008 19.8086Z" fill="black"/>
<path d="M18.3138 17.7186L18.4078 17.8016L19.1078 18.5016C19.2872 18.6816 19.3913 18.923 19.3991 19.177C19.4068 19.4309 19.3176 19.6783 19.1496 19.8689C18.9816 20.0594 18.7473 20.1789 18.4944 20.203C18.2414 20.2271 17.9888 20.154 17.7878 19.9986L17.6938 19.9156L16.9938 19.2156C16.8213 19.0433 16.7176 18.8139 16.7023 18.5706C16.687 18.3272 16.7612 18.0867 16.9108 17.8942C17.0604 17.7017 17.2753 17.5704 17.5149 17.5252C17.7545 17.48 18.0023 17.5239 18.2118 17.6486L18.3138 17.7186Z" fill="black"/>
<path d="M7.00785 17.8016C7.18002 17.9738 7.28345 18.2029 7.29873 18.4459C7.31402 18.6889 7.2401 18.9292 7.09085 19.1216L7.00785 19.2156L6.30785 19.9156C6.12789 20.0949 5.88641 20.1991 5.63246 20.2068C5.37851 20.2146 5.13113 20.1254 4.94057 19.9573C4.75 19.7893 4.63054 19.555 4.60645 19.3021C4.58235 19.0492 4.65543 18.7966 4.81085 18.5956L4.89385 18.5016L5.59385 17.8016C5.78137 17.6141 6.03568 17.5088 6.30085 17.5088C6.56601 17.5088 6.82032 17.6141 7.00785 17.8016Z" fill="black"/>
<path d="M4.00085 11.8086C4.25573 11.8089 4.50088 11.9065 4.68621 12.0814C4.87155 12.2564 4.98308 12.4955 4.99802 12.75C5.01295 13.0044 4.93017 13.255 4.76658 13.4504C4.60299 13.6459 4.37094 13.7715 4.11785 13.8016L4.00085 13.8086H3.00085C2.74597 13.8083 2.50081 13.7107 2.31548 13.5357C2.13014 13.3608 2.01861 13.1216 2.00367 12.8672C1.98874 12.6128 2.07152 12.3622 2.23511 12.1668C2.3987 11.9713 2.63075 11.8457 2.88385 11.8156L3.00085 11.8086H4.00085Z" fill="black"/>
<path d="M21.0008 11.8086C21.2557 11.8089 21.5009 11.9065 21.6862 12.0814C21.8715 12.2564 21.9831 12.4955 21.998 12.75C22.013 13.0044 21.9302 13.255 21.7666 13.4504C21.603 13.6459 21.3709 13.7715 21.1178 13.8016L21.0008 13.8086H20.0008C19.746 13.8083 19.5008 13.7107 19.3155 13.5357C19.1301 13.3608 19.0186 13.1216 19.0037 12.8672C18.9887 12.6128 19.0715 12.3622 19.2351 12.1668C19.3987 11.9713 19.6307 11.8457 19.8838 11.8156L20.0008 11.8086H21.0008Z" fill="black"/>
<path d="M6.21385 5.61859L6.30785 5.70159L7.00785 6.40159C7.18719 6.58155 7.29132 6.82303 7.29907 7.07698C7.30683 7.33093 7.21763 7.57831 7.0496 7.76887C6.88156 7.95944 6.64729 8.0789 6.39437 8.10299C6.14145 8.12709 5.88884 8.05401 5.68785 7.89859L5.59385 7.81559L4.89385 7.11559C4.72194 6.94327 4.61878 6.71417 4.60371 6.47123C4.58865 6.22828 4.66271 5.98819 4.81201 5.79595C4.96131 5.60371 5.1756 5.47252 5.41471 5.42699C5.65382 5.38145 5.90134 5.42469 6.11085 5.54859L6.21385 5.61859Z" fill="black"/>
<path d="M19.1078 5.70159C19.28 5.87379 19.3835 6.10289 19.3987 6.34591C19.414 6.58894 19.3401 6.82919 19.1908 7.02159L19.1078 7.11559L18.4078 7.81559C18.2279 7.99494 17.9864 8.09907 17.7325 8.10682C17.4785 8.11458 17.2311 8.02538 17.0406 7.85735C16.85 7.68931 16.7305 7.45504 16.7064 7.20212C16.6824 6.9492 16.7554 6.69659 16.9108 6.49559L16.9938 6.40159L17.6938 5.70159C17.8814 5.51412 18.1357 5.40881 18.4008 5.40881C18.666 5.40881 18.9203 5.51412 19.1078 5.70159Z" fill="black"/>
<path d="M12.0008 2.80859C12.2458 2.80863 12.4822 2.89855 12.6652 3.06131C12.8483 3.22407 12.9652 3.44834 12.9938 3.69159L13.0008 3.80859V4.80859C13.0006 5.06347 12.903 5.30863 12.728 5.49396C12.553 5.6793 12.3139 5.79083 12.0595 5.80577C11.805 5.8207 11.5545 5.73792 11.359 5.57433C11.1636 5.41074 11.0379 5.17869 11.0078 4.92559L11.0008 4.80859V3.80859C11.0008 3.54338 11.1062 3.28902 11.2937 3.10149C11.4813 2.91395 11.7356 2.80859 12.0008 2.80859Z" fill="black"/>
<path d="M12.0008 7.80859C12.9805 7.80854 13.9386 8.09628 14.7562 8.63609C15.5737 9.1759 16.2147 9.94399 16.5994 10.845C16.9842 11.7459 17.0957 12.7401 16.9203 13.7039C16.7449 14.6677 16.2902 15.5588 15.6127 16.2665C14.9352 16.9741 14.0647 17.4671 13.1094 17.6842C12.1541 17.9014 11.156 17.8331 10.2392 17.4879C9.32235 17.1426 8.52713 16.5357 7.9523 15.7424C7.37748 14.949 7.04836 14.0043 7.00585 13.0256L7.00085 12.8086L7.00585 12.5916C7.06176 11.3043 7.61245 10.0884 8.54307 9.19725C9.47368 8.30614 10.7124 7.80867 12.0008 7.80859Z" fill="black"/>
</svg>
