<svg width="24" height="25" viewBox="0 0 24 25" fill="none" xmlns="http://www.w3.org/2000/svg">
<path d="M13.5528 3.91406C14.0468 3.66707 14.6477 3.86735 14.8946 4.36133C15.1416 4.85531 14.9414 5.45614 14.4474 5.70312L12.4474 6.70312C12.1659 6.84389 11.8344 6.84389 11.5528 6.70312L9.55285 5.70312C9.05887 5.45614 8.85859 4.85531 9.10558 4.36133C9.35257 3.86735 9.9534 3.66707 10.4474 3.91406L12.0001 4.69043L13.5528 3.91406Z" fill="black"/>
<path d="M11.0001 2.80859C11.0001 2.25631 11.4478 1.80859 12.0001 1.80859C12.5524 1.80859 13.0001 2.25631 13.0001 2.80859V8.72949L15.4972 10.1611C15.9763 10.4358 16.142 11.0472 15.8673 11.5264C15.5926 12.005 14.982 12.1708 14.503 11.8965L11.503 10.1758C11.1922 9.99755 11.0001 9.66694 11.0001 9.30859V2.80859Z" fill="black"/>
<path d="M17.8685 6.07855C18.4197 6.04565 18.8931 6.46585 18.9262 7.01702L19.0297 8.74945L20.4789 9.70648C20.9396 10.0107 21.067 10.6304 20.7631 11.0912C20.4588 11.552 19.8382 11.6795 19.3773 11.3754L17.5111 10.143C17.2485 9.96958 17.0827 9.68273 17.0639 9.36859L16.9301 7.13616C16.8972 6.58502 17.3174 6.11164 17.8685 6.07855Z" fill="black"/>
<path d="M20.16 6.94238C20.6383 6.66625 21.2501 6.83031 21.5262 7.30859C21.8023 7.78688 21.6383 8.39867 21.16 8.6748L16.0321 11.6348L16.0409 14.5137C16.0425 15.066 15.5961 15.515 15.0438 15.5166C14.4916 15.5181 14.0425 15.0717 14.0409 14.5195L14.0311 11.0615C14.0301 10.7032 14.2208 10.3715 14.5311 10.1924L20.16 6.94238Z" fill="black"/>
<path d="M19.3773 14.2416C19.8382 13.9376 20.4589 14.065 20.7631 14.5258C21.0671 14.9867 20.9397 15.6073 20.4789 15.9116L19.0297 16.8666L18.9262 18.601C18.8928 19.1519 18.4195 19.5714 17.8685 19.5385C17.3173 19.5054 16.8971 19.0321 16.9301 18.4809L17.0639 16.2485L17.0775 16.1323C17.1255 15.8645 17.2813 15.6258 17.5111 15.4741L19.3773 14.2416Z" fill="black"/>
<path d="M14.5284 13.6943C14.8382 13.5143 15.221 13.5132 15.5314 13.6924L21.1603 16.9424C21.6385 17.2185 21.8025 17.8303 21.5265 18.3086C21.2504 18.7868 20.6385 18.9508 20.1603 18.6748L15.0323 15.7139L12.544 17.1611C12.0666 17.4387 11.4544 17.2763 11.1769 16.7988C10.8994 16.3214 11.0608 15.7092 11.5382 15.4316L14.5284 13.6943Z" fill="black"/>
<path d="M11.6603 18.8682C11.9162 18.7756 12.2009 18.7908 12.4474 18.9141L14.4474 19.9141C14.9414 20.1611 15.1416 20.7619 14.8946 21.2559C14.6477 21.7498 14.0468 21.9501 13.5528 21.7031L12.0001 20.9268L10.4474 21.7031C9.9534 21.9501 9.35257 21.7498 9.10558 21.2559C8.85859 20.7619 9.05887 20.1611 9.55285 19.9141L11.5528 18.9141L11.6603 18.8682Z" fill="black"/>
<path d="M11.0001 22.8083V16.8874L8.50304 15.4558C8.02395 15.1811 7.8583 14.5706 8.13293 14.0915C8.40761 13.6124 9.01807 13.4468 9.49719 13.7214L12.4972 15.4411C12.808 15.6193 13 15.9501 13.0001 16.3083V22.8083C13.0001 23.3606 12.5524 23.8083 12.0001 23.8083C11.4478 23.8083 11.0001 23.3606 11.0001 22.8083Z" fill="black"/>
<path d="M3.23715 14.5258C3.54138 14.065 4.16204 13.9376 4.6229 14.2416L6.48911 15.4741L6.58286 15.5444C6.79075 15.7197 6.91982 15.9736 6.93637 16.2485L7.07016 18.4809C7.10314 19.0321 6.68291 19.5054 6.13168 19.5385C5.5807 19.5714 5.10741 19.1519 5.07407 18.601L4.96958 16.8666L3.52133 15.9116C3.06055 15.6073 2.93314 14.9867 3.23715 14.5258Z" fill="black"/>
<path d="M8.95633 10.1006C9.50855 10.0991 9.95764 10.5454 9.95925 11.0977L9.96902 14.5557C9.97006 14.914 9.77931 15.2457 9.46902 15.4248L3.84011 18.6748C3.36184 18.9509 2.75003 18.7869 2.4739 18.3086C2.19782 17.8303 2.36185 17.2185 2.84011 16.9424L7.96707 13.9815L7.95925 11.1035C7.95766 10.5512 8.40404 10.1022 8.95633 10.1006Z" fill="black"/>
<path d="M6.13168 6.07855C6.68286 6.11164 7.10306 6.58502 7.07016 7.13616L6.93637 9.36859C6.91749 9.68273 6.75173 9.96958 6.48911 10.143L4.6229 11.3754C4.16203 11.6795 3.54139 11.552 3.23715 11.0912C2.93323 10.6304 3.06062 10.0107 3.52133 9.70648L4.96958 8.74945L5.07407 7.01702C5.10716 6.46585 5.58054 6.04565 6.13168 6.07855Z" fill="black"/>
<path d="M2.4739 7.30859C2.75003 6.83034 3.36184 6.66631 3.84011 6.94238L8.96707 9.90234L11.4563 8.45605C11.9338 8.17851 12.546 8.34088 12.8235 8.81836C13.1009 9.29582 12.9386 9.90803 12.4612 10.1855L9.47195 11.9229C9.16217 12.1029 8.77933 12.104 8.46902 11.9248L2.84011 8.6748C2.36186 8.39867 2.19783 7.78687 2.4739 7.30859Z" fill="black"/>
</svg>
