<svg width="24" height="24" viewBox="0 0 24 24" fill="none" xmlns="http://www.w3.org/2000/svg">
<path d="M20.5083 7.0956C20.4373 6.79464 20.059 6.68856 19.8401 6.90744L17.7099 9.03768L15.391 8.60856L14.9614 6.28968L17.0917 4.15944C17.3105 3.94056 17.2045 3.56232 16.9035 3.49128C15.3185 3.1164 13.5824 3.54648 12.3464 4.78248C10.8723 6.25656 10.5488 8.44008 11.3653 10.2314L4.05149 16.9514C3.15005 17.7929 3.12605 19.2137 3.99773 20.0858C4.86941 20.9575 6.29021 20.9335 7.13165 20.0326L13.8824 12.6876C15.6517 13.4383 17.7742 13.0956 19.2166 11.6532C20.4531 10.4172 20.8827 8.68056 20.5083 7.09608V7.0956ZM6.24125 19.0966C5.89469 19.4431 5.33309 19.4431 4.98701 19.0966C4.64045 18.75 4.64045 18.1884 4.98701 17.8423C5.33357 17.4958 5.89517 17.4958 6.24125 17.8423C6.58781 18.1889 6.58781 18.7505 6.24125 19.0966Z" fill="#ABB7C7"/>
</svg>
