<svg width="24" height="24" viewBox="0 0 24 24" fill="none" xmlns="http://www.w3.org/2000/svg">
<path d="M21.0067 14.0681L22.6033 12.4715C22.8637 12.2111 22.8637 11.7887 22.6033 11.5283L21.0067 9.9317C20.8381 9.7631 20.7721 9.5177 20.8339 9.2873L21.4183 7.1063C21.5137 6.7505 21.3025 6.3845 20.9467 6.2891L18.7657 5.7047C18.5353 5.6429 18.3559 5.4629 18.2941 5.2331L17.7097 3.0521C17.6143 2.6963 17.2483 2.4851 16.8925 2.5805L14.7115 3.1649C14.4811 3.2267 14.2357 3.1607 14.0671 2.9921L12.4705 1.3955C12.2101 1.1351 11.7877 1.1351 11.5273 1.3955L9.93072 2.9921C9.76212 3.1607 9.51672 3.2267 9.28632 3.1649L7.10532 2.5805C6.74952 2.4851 6.38352 2.6963 6.28812 3.0521L5.70372 5.2331C5.64192 5.4635 5.46192 5.6429 5.23212 5.7047L3.05112 6.2891C2.69532 6.3845 2.48412 6.7505 2.57952 7.1063L3.16392 9.2873C3.22572 9.5177 3.15972 9.7631 2.99112 9.9317L1.39452 11.5283C1.13412 11.7887 1.13412 12.2111 1.39452 12.4715L2.99112 14.0681C3.15972 14.2367 3.22572 14.4821 3.16392 14.7125L2.57952 16.8935C2.48412 17.2493 2.69532 17.6153 3.05112 17.7107L5.23212 18.2951C5.46252 18.3569 5.64192 18.5369 5.70372 18.7667L6.28812 20.9477C6.38352 21.3035 6.74952 21.5147 7.10532 21.4193L9.28632 20.8349C9.51672 20.7731 9.76212 20.8391 9.93072 21.0077L11.5273 22.6043C11.7877 22.8647 12.2101 22.8647 12.4705 22.6043L14.0671 21.0077C14.2357 20.8391 14.4811 20.7731 14.7115 20.8349L16.8925 21.4193C17.2483 21.5147 17.6143 21.3035 17.7097 20.9477L18.2941 18.7667C18.3559 18.5363 18.5359 18.3569 18.7657 18.2951L20.9467 17.7107C21.3025 17.6153 21.5137 17.2493 21.4183 16.8935L20.8339 14.7125C20.7721 14.4821 20.8381 14.2367 21.0067 14.0681Z" fill="#FFCD00"/>
<path d="M11.9995 18.2951C15.4763 18.2951 18.2947 15.4766 18.2947 11.9999C18.2947 8.52315 15.4763 5.7047 11.9995 5.7047C8.52279 5.7047 5.70433 8.52315 5.70433 11.9999C5.70433 15.4766 8.52279 18.2951 11.9995 18.2951Z" fill="#FFAA00"/>
</svg>
