<svg width="24" height="25" viewBox="0 0 24 25" fill="none" xmlns="http://www.w3.org/2000/svg">
<path d="M13.8111 2.96981C14.4592 2.91886 15.1085 3.04949 15.6866 3.34684C16.2648 3.64441 16.7486 4.09769 17.0839 4.65491C17.4191 5.21198 17.5933 5.85111 17.5855 6.50121C17.5776 7.15148 17.3881 7.78706 17.0394 8.33597C16.6906 8.88485 16.1957 9.32611 15.6104 9.60951C15.0309 9.89 14.3856 10.0035 13.7451 9.94089L13.7449 9.94283L5.27472 9.23145C4.72452 9.18524 4.31596 8.70143 4.36192 8.15127C4.40814 7.60092 4.89176 7.19225 5.4421 7.23847L13.9317 7.95149C14.2088 7.98003 14.4887 7.931 14.7394 7.8096C14.9903 7.68814 15.2023 7.49846 15.3518 7.26323C15.5011 7.02805 15.582 6.75586 15.5853 6.47729C15.5887 6.19867 15.5142 5.92478 15.3705 5.68602C15.2268 5.44721 15.0196 5.25269 14.7718 5.12516C14.5241 4.99772 14.2458 4.94177 13.9681 4.96357C13.6904 4.98544 13.424 5.08434 13.1993 5.24887C12.9745 5.41361 12.7996 5.63812 12.6951 5.89644C12.488 6.40826 11.9052 6.65545 11.3933 6.44861C10.8814 6.24146 10.6341 5.65785 10.8413 5.14588C11.0852 4.54327 11.4923 4.02074 12.0166 3.63642C12.5412 3.25199 13.1628 3.02088 13.8111 2.96981Z" fill="black"/>
<path d="M18.56 12.3534L18.5599 12.3553C19.2019 12.4004 19.8192 12.62 20.3438 12.9932C20.8736 13.3702 21.288 13.8879 21.5404 14.4872C21.7927 15.0866 21.8734 15.7449 21.7728 16.3874C21.672 17.0297 21.3937 17.6308 20.9703 18.1242C20.5468 18.6177 19.9941 18.9839 19.3743 19.1808C18.7548 19.3776 18.0927 19.3981 17.4623 19.2398C16.8316 19.0813 16.2572 18.7497 15.8041 18.2832C15.3512 17.8168 15.037 17.2337 14.897 16.5988C14.7781 16.0595 15.1193 15.5253 15.6586 15.4064C16.1978 15.2878 16.7312 15.6288 16.85 16.168C16.91 16.4401 17.0441 16.6906 17.2382 16.8905C17.4324 17.0904 17.6793 17.2322 17.9496 17.3001C18.2197 17.3679 18.5035 17.3592 18.769 17.2748C19.0346 17.1904 19.2714 17.0332 19.4529 16.8217C19.6343 16.6102 19.7535 16.3526 19.7967 16.0774C19.8398 15.8021 19.8055 15.5202 19.6974 15.2635C19.5893 15.0066 19.4119 14.7842 19.1848 14.6226C18.9579 14.4611 18.6901 14.3661 18.4121 14.348L2.94704 13.0491C2.3967 13.0029 1.98802 12.5193 2.03424 11.9689C2.08069 11.4188 2.56423 11.0099 3.11443 11.0561L18.56 12.3534Z" fill="black"/>
<path d="M9.25685 15.5861L9.25669 15.5881C9.89866 15.6331 10.516 15.8527 11.0406 16.2259C11.5704 16.603 11.9848 17.1206 12.2372 17.72C12.4895 18.3194 12.5702 18.9776 12.4696 19.6201C12.3688 20.2624 12.0905 20.8635 11.6671 21.3569C11.2436 21.8504 10.6909 22.2166 10.0711 22.4136C9.4516 22.6103 8.78953 22.6308 8.15909 22.4725C7.52837 22.314 6.95397 21.9824 6.50091 21.5159C6.048 21.0495 5.73377 20.4664 5.59377 19.8315C5.47491 19.2922 5.81607 18.758 6.35542 18.6391C6.8946 18.5206 7.42801 18.8615 7.54684 19.4007C7.60682 19.6728 7.74088 19.9233 7.93499 20.1232C8.12917 20.3232 8.37607 20.4649 8.64637 20.5328C8.91654 20.6006 9.20034 20.5919 9.46581 20.5076C9.73144 20.4232 9.96817 20.2659 10.1497 20.0544C10.3311 19.843 10.4503 19.5854 10.4935 19.3101C10.5366 19.0349 10.5023 18.753 10.3942 18.4962C10.2861 18.2393 10.1087 18.0169 9.88163 17.8553C9.65466 17.6938 9.38692 17.5988 9.10893 17.5807L3.60877 17.1188C3.05842 17.0726 2.64974 16.5889 2.69597 16.0386C2.74242 15.4885 3.22595 15.0796 3.77615 15.1258L9.25685 15.5861Z" fill="black"/>
</svg>
