<svg width="24" height="24" viewBox="0 0 24 24" fill="none" xmlns="http://www.w3.org/2000/svg">
<path d="M18.8883 13.5152L20.1516 12.2519C20.3576 12.0459 20.3576 11.7114 20.1516 11.5054L18.8883 10.2421C18.7548 10.1086 18.7031 9.91459 18.7516 9.73213L19.2139 8.00642C19.2892 7.72466 19.1225 7.4355 18.8407 7.35974L17.115 6.89737C16.933 6.8484 16.7907 6.70614 16.7418 6.52414L16.2794 4.79843C16.2041 4.51666 15.9145 4.34991 15.6327 4.4252L13.907 4.88758C13.725 4.93654 13.5305 4.88435 13.397 4.75085L12.1337 3.48752C11.9277 3.2815 11.5933 3.2815 11.3873 3.48752L10.1239 4.75085C9.99043 4.88435 9.79643 4.93608 9.61397 4.88758L7.88826 4.4252C7.60649 4.34991 7.31733 4.51666 7.24158 4.79843L6.7792 6.52414C6.73024 6.70614 6.58797 6.8484 6.40598 6.89737L4.68027 7.35974C4.3985 7.43504 4.23175 7.72466 4.30704 8.00642L4.76942 9.73213C4.81838 9.91413 4.76618 10.1086 4.63269 10.2421L3.36935 11.5054C3.16334 11.7114 3.16334 12.0459 3.36935 12.2519L4.63269 13.5152C4.76618 13.6487 4.81792 13.8427 4.76942 14.0252L4.30704 15.7509C4.23175 16.0326 4.3985 16.3218 4.68027 16.3976L6.40598 16.8599C6.58797 16.9089 6.73024 17.0512 6.7792 17.2332L7.24158 18.9589C7.31687 19.2406 7.60649 19.4074 7.88826 19.3321L9.61397 18.8697C9.79596 18.8208 9.99043 18.873 10.1239 19.0064L11.3873 20.2698C11.5933 20.4758 11.9277 20.4758 12.1337 20.2698L13.397 19.0064C13.5305 18.873 13.7245 18.8212 13.907 18.8697L15.6327 19.3321C15.9145 19.4074 16.2036 19.2406 16.2794 18.9589L16.7418 17.2332C16.7907 17.0512 16.933 16.9089 17.115 16.8599L18.8407 16.3976C19.1225 16.3223 19.2892 16.0326 19.2139 15.7509L18.7516 14.0252C18.7026 13.8432 18.7548 13.6487 18.8883 13.5152Z" fill="#FFCD00"/>
<path d="M11.7612 17.5752C14.9075 17.5752 17.458 15.0247 17.458 11.8784C17.458 8.73218 14.9075 6.18164 11.7612 6.18164C8.61499 6.18164 6.06445 8.73218 6.06445 11.8784C6.06445 15.0247 8.61499 17.5752 11.7612 17.5752Z" fill="#FFAA00"/>
<path d="M10.166 11.4208C10.5726 11.4208 10.9023 11.0912 10.9023 10.6845C10.9023 10.2779 10.5726 9.94824 10.166 9.94824C9.75934 9.94824 9.42969 10.2779 9.42969 10.6845C9.42969 11.0912 9.75934 11.4208 10.166 11.4208Z" fill="black"/>
<path d="M13.3574 11.4208C13.764 11.4208 14.0937 11.0912 14.0937 10.6845C14.0937 10.2779 13.764 9.94824 13.3574 9.94824C12.9507 9.94824 12.6211 10.2779 12.6211 10.6845C12.6211 11.0912 12.9507 11.4208 13.3574 11.4208Z" fill="black"/>
<path d="M11.7615 13.4285C10.7198 13.4285 9.94891 13.2415 9.48977 13.0867C9.28652 13.0184 9.11839 13.2701 9.26851 13.4239C9.72211 13.8886 10.6931 14.2909 11.7615 14.2909C12.8299 14.2909 13.8008 13.8886 14.2544 13.4239C14.4045 13.2701 14.2364 13.0184 14.0332 13.0867C13.574 13.2415 12.8031 13.4285 11.7615 13.4285Z" fill="#EC6700"/>
</svg>
