<svg width="1872" height="984" viewBox="0 0 1872 984" fill="none" xmlns="http://www.w3.org/2000/svg">
<g opacity="0.14" clip-path="url(#clip0_2252_8074)">
<path d="M243.123 474.276C243.033 474.533 242.922 474.787 242.788 475.034C241.429 477.532 238.301 478.455 235.803 477.097C233.344 475.759 232.412 472.709 233.68 470.231L233.671 470.226L233.74 470.112C233.827 469.952 233.921 469.798 234.022 469.651L285.755 385.245L243.123 474.276Z" fill="white" fill-opacity="0.8"/>
<path d="M238.297 325.38C238.229 325.575 238.145 325.769 238.042 325.957C237.017 327.842 234.656 328.539 232.771 327.514C230.915 326.504 230.213 324.203 231.169 322.333L231.16 322.329L231.244 322.192C231.295 322.1 231.35 322.01 231.408 321.924L270.469 258.193L238.297 325.38Z" fill="white" fill-opacity="0.8"/>
<path d="M863.078 379.931C862.988 380.188 862.877 380.442 862.743 380.689C861.384 383.187 858.256 384.11 855.758 382.751C853.299 381.413 852.368 378.363 853.635 375.885L853.626 375.88L853.695 375.767C853.782 375.607 853.876 375.452 853.977 375.305L905.711 290.9L863.078 379.931Z" fill="white" fill-opacity="0.8"/>
<path d="M790.149 198.13C790.058 198.387 789.947 198.641 789.813 198.888C788.454 201.386 785.326 202.309 782.828 200.95C780.369 199.612 779.438 196.562 780.705 194.084L780.696 194.079L780.765 193.966C780.852 193.806 780.947 193.652 781.047 193.505L832.781 109.099L790.149 198.13Z" fill="white" fill-opacity="0.8"/>
<path d="M1392.98 477.727C1392.89 477.984 1392.78 478.238 1392.65 478.485C1391.29 480.983 1388.16 481.907 1385.66 480.548C1383.2 479.21 1382.27 476.16 1383.54 473.682L1383.53 473.677L1383.6 473.564C1383.68 473.403 1383.78 473.249 1383.88 473.102L1435.61 388.697L1392.98 477.727Z" fill="white" fill-opacity="0.8"/>
<path d="M1233.72 321.774C1233.63 322.031 1233.52 322.285 1233.38 322.532C1232.02 325.03 1228.9 325.954 1226.4 324.595C1223.94 323.257 1223.01 320.207 1224.28 317.729L1224.27 317.724L1224.34 317.61C1224.42 317.45 1224.52 317.296 1224.62 317.149L1276.35 232.744L1233.72 321.774Z" fill="white" fill-opacity="0.8"/>
<path d="M1433.03 645.061C1432.94 645.318 1432.82 645.572 1432.69 645.819C1431.33 648.317 1428.2 649.241 1425.71 647.882C1423.25 646.544 1422.31 643.494 1423.58 641.016L1423.57 641.011L1423.64 640.898C1423.73 640.737 1423.82 640.583 1423.92 640.436L1475.66 556.031L1433.03 645.061Z" fill="white" fill-opacity="0.8"/>
<path d="M1322.23 861.063C1322.14 861.32 1322.03 861.574 1321.9 861.821C1320.54 864.319 1317.41 865.243 1314.91 863.884C1312.46 862.546 1311.52 859.496 1312.79 857.018L1312.78 857.013L1312.85 856.899C1312.94 856.739 1313.03 856.585 1313.13 856.438L1364.87 772.033L1322.23 861.063Z" fill="white" fill-opacity="0.8"/>
<path d="M684.944 743.448C684.853 743.705 684.742 743.959 684.608 744.206C683.249 746.704 680.121 747.627 677.623 746.268C675.164 744.931 674.233 741.881 675.5 739.403L675.491 739.398L675.56 739.284C675.647 739.124 675.741 738.97 675.842 738.823L727.576 654.417L684.944 743.448Z" fill="white" fill-opacity="0.8"/>
<path d="M743.573 986.935C743.482 987.191 743.371 987.445 743.237 987.692C741.878 990.191 738.75 991.114 736.252 989.755C733.793 988.417 732.862 985.367 734.129 982.889L734.12 982.884L734.189 982.771C734.276 982.61 734.37 982.456 734.471 982.309L786.205 897.904L743.573 986.935Z" fill="white" fill-opacity="0.8"/>
<path d="M116.323 829.595C116.232 829.852 116.121 830.106 115.987 830.353C114.628 832.851 111.5 833.774 109.002 832.415C106.543 831.077 105.612 828.027 106.879 825.549L106.87 825.544L106.939 825.431C107.026 825.271 107.12 825.116 107.221 824.969L158.955 740.564L116.323 829.595Z" fill="white" fill-opacity="0.8"/>
<path d="M441.328 375.386C441.238 375.643 441.127 375.897 440.993 376.144C439.634 378.642 436.506 379.565 434.008 378.206C431.549 376.868 430.618 373.818 431.885 371.34L431.876 371.335L431.945 371.222C432.032 371.062 432.126 370.907 432.227 370.76L483.961 286.355L441.328 375.386Z" fill="white" fill-opacity="0.8"/>
<path d="M357.598 184.347C357.508 184.604 357.397 184.858 357.262 185.105C355.903 187.603 352.776 188.526 350.277 187.167C347.818 185.829 346.887 182.779 348.155 180.301L348.145 180.296L348.215 180.183C348.302 180.023 348.396 179.868 348.497 179.721L400.23 95.3158L357.598 184.347Z" fill="white" fill-opacity="0.8"/>
<path d="M139.082 144.018C138.992 144.275 138.881 144.529 138.747 144.776C137.388 147.274 134.26 148.198 131.762 146.839C129.303 145.501 128.371 142.451 129.639 139.973L129.63 139.968L129.699 139.855C129.786 139.694 129.88 139.54 129.981 139.393L181.714 54.9877L139.082 144.018Z" fill="white" fill-opacity="0.8"/>
<path d="M1061.28 281.04C1061.19 281.297 1061.08 281.551 1060.95 281.798C1059.59 284.296 1056.46 285.219 1053.96 283.86C1051.5 282.522 1050.57 279.472 1051.84 276.995L1051.83 276.989L1051.9 276.876C1051.99 276.716 1052.08 276.562 1052.18 276.415L1103.92 192.009L1061.28 281.04Z" fill="white" fill-opacity="0.8"/>
<path d="M1591.18 378.835C1591.09 379.092 1590.98 379.346 1590.85 379.593C1589.49 382.091 1586.36 383.014 1583.86 381.655C1581.4 380.317 1580.47 377.267 1581.74 374.789L1581.73 374.784L1581.8 374.671C1581.89 374.511 1581.98 374.357 1582.08 374.21L1633.82 289.804L1591.18 378.835Z" fill="white" fill-opacity="0.8"/>
<path d="M1781.11 474.958C1781.02 475.215 1780.91 475.469 1780.77 475.716C1779.41 478.214 1776.29 479.137 1773.79 477.778C1771.33 476.44 1770.4 473.39 1771.66 470.913L1771.65 470.907L1771.72 470.794C1771.81 470.634 1771.91 470.48 1772.01 470.333L1823.74 385.927L1781.11 474.958Z" fill="white" fill-opacity="0.8"/>
<path d="M1520.44 762.171C1520.35 762.428 1520.24 762.682 1520.1 762.929C1518.74 765.427 1515.62 766.35 1513.12 764.991C1510.66 763.653 1509.73 760.603 1510.99 758.125L1510.98 758.12L1511.05 758.007C1511.14 757.847 1511.24 757.693 1511.34 757.546L1563.07 673.14L1520.44 762.171Z" fill="white" fill-opacity="0.8"/>
<path d="M1729.41 1000.64C1729.32 1000.9 1729.21 1001.15 1729.08 1001.4C1727.72 1003.9 1724.59 1004.82 1722.09 1003.46C1719.63 1002.12 1718.7 999.072 1719.97 996.594L1719.96 996.589L1720.03 996.476C1720.12 996.316 1720.21 996.161 1720.31 996.014L1772.05 911.609L1729.41 1000.64Z" fill="white" fill-opacity="0.8"/>
<path d="M883.147 644.556C883.056 644.813 882.946 645.067 882.811 645.314C881.452 647.812 878.324 648.735 875.826 647.376C873.367 646.038 872.436 642.988 873.703 640.51L873.694 640.505L873.763 640.392C873.851 640.232 873.945 640.077 874.046 639.93L925.779 555.525L883.147 644.556Z" fill="white" fill-opacity="0.8"/>
<path d="M312.173 660.961C312.105 661.157 312.021 661.35 311.919 661.538C310.893 663.423 308.533 664.12 306.648 663.094C304.792 662.084 304.089 659.783 305.046 657.913L305.037 657.909L305.121 657.771C305.172 657.68 305.225 657.592 305.283 657.506L344.346 593.773L312.173 660.961Z" fill="white" fill-opacity="0.8"/>
<path d="M431.729 606.28C431.638 606.537 431.528 606.791 431.393 607.038C430.034 609.536 426.906 610.459 424.408 609.1C421.949 607.763 421.018 604.713 422.285 602.235L422.276 602.23L422.345 602.116C422.433 601.956 422.527 601.802 422.628 601.655L474.361 517.249L431.729 606.28Z" fill="white" fill-opacity="0.8"/>
<path d="M1051.68 511.935C1051.59 512.191 1051.48 512.445 1051.35 512.692C1049.99 515.191 1046.86 516.114 1044.36 514.755C1041.9 513.417 1040.97 510.367 1042.24 507.889L1042.23 507.884L1042.3 507.771C1042.39 507.61 1042.48 507.456 1042.58 507.309L1094.32 422.904L1051.68 511.935Z" fill="white" fill-opacity="0.8"/>
<path d="M1605.36 640.558C1605.28 640.781 1605.18 641 1605.07 641.214C1603.89 643.372 1601.19 644.17 1599.04 642.996C1596.91 641.841 1596.11 639.206 1597.2 637.066L1597.19 637.062L1597.25 636.963C1597.33 636.824 1597.41 636.69 1597.5 636.563L1642.18 563.666L1605.36 640.558Z" fill="white" fill-opacity="0.8"/>
<path d="M1793.68 714.876C1793.59 715.133 1793.48 715.387 1793.34 715.634C1791.98 718.132 1788.86 719.055 1786.36 717.696C1783.9 716.358 1782.97 713.308 1784.23 710.831L1784.23 710.825L1784.29 710.712C1784.38 710.552 1784.48 710.398 1784.58 710.251L1836.31 625.845L1793.68 714.876Z" fill="white" fill-opacity="0.8"/>
<path d="M1515.75 985.425C1515.66 985.682 1515.55 985.936 1515.42 986.183C1514.06 988.681 1510.93 989.604 1508.43 988.245C1505.97 986.907 1505.04 983.857 1506.31 981.379L1506.3 981.374L1506.37 981.261C1506.46 981.101 1506.55 980.946 1506.65 980.799L1558.38 896.394L1515.75 985.425Z" fill="white" fill-opacity="0.8"/>
<path d="M952.631 840.218C952.541 840.475 952.43 840.729 952.296 840.976C950.936 843.474 947.809 844.397 945.311 843.038C942.852 841.7 941.92 838.65 943.188 836.172L943.178 836.167L943.248 836.054C943.335 835.894 943.429 835.739 943.53 835.592L995.263 751.187L952.631 840.218Z" fill="white" fill-opacity="0.8"/>
<path d="M285.097 962.364C285.025 962.626 284.932 962.887 284.814 963.143C283.629 965.728 280.572 966.862 277.986 965.677C275.442 964.51 274.305 961.531 275.4 958.972L275.39 958.968L275.452 958.85C275.528 958.684 275.611 958.524 275.702 958.37L321.553 870.631L285.097 962.364Z" fill="white" fill-opacity="0.8"/>
<path d="M75.8538 540.602C75.7634 540.859 75.6525 541.113 75.5182 541.36C74.159 543.858 71.0314 544.782 68.5332 543.423C66.0743 542.085 65.1429 539.035 66.4104 536.557L66.401 536.552L66.4705 536.439C66.5576 536.278 66.6516 536.124 66.7526 535.977L118.486 451.572L75.8538 540.602Z" fill="white" fill-opacity="0.8"/>
<path d="M695.809 446.257C695.718 446.514 695.608 446.768 695.473 447.015C694.114 449.513 690.986 450.436 688.488 449.077C686.029 447.739 685.098 444.689 686.366 442.211L686.356 442.206L686.426 442.093C686.513 441.933 686.607 441.778 686.708 441.632L738.441 357.226L695.809 446.257Z" fill="white" fill-opacity="0.8"/>
<path d="M582.61 300.174C582.541 300.372 582.455 300.568 582.352 300.758C581.326 302.643 578.967 303.34 577.081 302.315C575.226 301.305 574.522 299.004 575.479 297.134L575.471 297.129L575.536 297.022C575.593 296.919 575.655 296.819 575.72 296.723L614.779 232.994L582.61 300.174Z" fill="white" fill-opacity="0.8"/>
<path d="M1225.71 544.052C1225.62 544.309 1225.51 544.563 1225.37 544.81C1224.01 547.308 1220.88 548.231 1218.39 546.872C1215.93 545.534 1215 542.484 1216.26 540.006L1216.25 540.001L1216.32 539.888C1216.41 539.728 1216.51 539.573 1216.61 539.426L1268.34 455.021L1225.71 544.052Z" fill="white" fill-opacity="0.8"/>
<path d="M1223.12 712.375C1223.05 712.578 1222.96 712.779 1222.86 712.974C1221.8 714.927 1219.35 715.649 1217.4 714.587C1215.48 713.541 1214.75 711.157 1215.74 709.22L1215.73 709.216L1215.8 709.109C1215.86 708.993 1215.93 708.88 1216 708.772L1256.44 642.788L1223.12 712.375Z" fill="white" fill-opacity="0.8"/>
<path d="M1098.32 914.001C1098.23 914.239 1098.13 914.474 1098.01 914.702C1096.78 916.963 1093.95 917.798 1091.69 916.568C1089.46 915.358 1088.62 912.598 1089.76 910.356L1089.75 910.35L1089.85 910.198C1089.91 910.089 1089.97 909.983 1090.04 909.881L1136.89 833.44L1098.32 914.001Z" fill="white" fill-opacity="0.8"/>
<path d="M521.543 807.562C521.461 807.797 521.359 808.03 521.236 808.256C520.006 810.517 517.177 811.353 514.916 810.123C512.69 808.912 511.846 806.152 512.993 803.91L512.984 803.905L513.058 803.783C513.132 803.649 513.212 803.519 513.297 803.395L560.123 726.994L521.543 807.562Z" fill="white" fill-opacity="0.8"/>
<path d="M574.602 1027.92C574.52 1028.16 574.418 1028.39 574.295 1028.62C573.065 1030.88 570.235 1031.72 567.974 1030.49C565.749 1029.28 564.906 1026.52 566.053 1024.27L566.043 1024.27L566.136 1024.11C566.205 1023.99 566.278 1023.87 566.356 1023.76L613.181 947.357L574.602 1027.92Z" fill="white" fill-opacity="0.8"/>
<path d="M1756.08 267.317C1756 267.555 1755.9 267.79 1755.77 268.018C1754.54 270.279 1751.71 271.115 1749.45 269.885C1747.23 268.674 1746.38 265.914 1747.53 263.672L1747.52 263.667L1747.61 263.514C1747.68 263.405 1747.74 263.3 1747.81 263.198L1794.66 186.756L1756.08 267.317Z" fill="white" fill-opacity="0.8"/>
<path d="M1495.41 280.907C1495.33 281.143 1495.23 281.376 1495.11 281.602C1493.88 283.863 1491.05 284.699 1488.78 283.469C1486.56 282.258 1485.72 279.499 1486.86 277.256L1486.85 277.251L1486.93 277.125C1487 276.992 1487.08 276.864 1487.17 276.741L1533.99 200.34L1495.41 280.907Z" fill="white" fill-opacity="0.8"/>
<path d="M1291.61 125.012C1291.53 125.247 1291.43 125.479 1291.31 125.705C1290.08 127.966 1287.25 128.802 1284.99 127.572C1282.76 126.362 1281.92 123.601 1283.06 121.359L1283.05 121.353L1283.15 121.201C1283.22 121.077 1283.29 120.958 1283.37 120.843L1330.19 44.4438L1291.61 125.012Z" fill="white" fill-opacity="0.8"/>
<path d="M1544.84 83.6271C1544.76 83.8628 1544.66 84.0953 1544.54 84.3218C1543.31 86.5829 1540.48 87.4194 1538.22 86.1894C1535.99 84.9787 1535.15 82.2184 1536.29 79.9758L1536.29 79.9706L1536.38 79.8179C1536.45 79.6946 1536.52 79.575 1536.6 79.4606L1583.42 3.06098L1544.84 83.6271Z" fill="white" fill-opacity="0.8"/>
<path d="M1560.39 0.168882C1560.3 0.425837 1560.19 0.679841 1560.06 0.926821C1558.7 3.42488 1555.57 4.34808 1553.07 2.98908C1550.61 1.65122 1549.68 -1.39865 1550.95 -3.87652L1550.94 -3.88165L1551.01 -3.99505C1551.09 -4.15513 1551.19 -4.30941 1551.29 -4.45637L1603.02 -88.8619L1560.39 0.168882Z" fill="white" fill-opacity="0.8"/>
<path d="M1031.78 120.06C1031.69 120.316 1031.57 120.57 1031.44 120.817C1030.08 123.316 1026.95 124.239 1024.46 122.88C1022 121.542 1021.06 118.492 1022.33 116.014L1022.32 116.009L1022.39 115.896C1022.48 115.735 1022.57 115.581 1022.67 115.434L1074.41 31.0287L1031.78 120.06Z" fill="white" fill-opacity="0.8"/>
</g>
<defs>
<clipPath id="clip0_2252_8074">
<rect width="1870.4" height="982.327" fill="white" transform="translate(0.798828 0.835938)"/>
</clipPath>
</defs>
</svg>
