<svg width="32" height="33" viewBox="0 0 32 33" fill="none" xmlns="http://www.w3.org/2000/svg">
<g filter="url(#filter0_d_2254_14025)">
<rect x="4" y="2.5" width="24" height="24" rx="12" fill="#D4D4D9"/>
<rect x="4.75" y="3.25" width="22.5" height="22.5" rx="11.25" stroke="#D4D4D9" stroke-width="1.5"/>
<path d="M14.6708 14.338C14.8612 14.1797 15.0533 14.1797 15.2483 14.3426L15.2933 14.3834L17.3708 16.4609L17.4099 16.4955C17.4901 16.5577 17.5902 16.5884 17.6914 16.582C17.7927 16.5756 17.8881 16.5325 17.9598 16.4608C18.0316 16.3891 18.0747 16.2937 18.0811 16.1924C18.0874 16.0912 18.0567 15.9911 17.9945 15.9109L17.9599 15.8718L17.4216 15.333L17.5433 15.2109L17.5874 15.1713C17.7779 15.013 17.9699 15.013 18.1649 15.1759L18.2099 15.2168L20.1574 17.1647C20.118 17.5615 19.9376 17.9309 19.649 18.2061C19.3604 18.4812 18.9827 18.6438 18.5845 18.6643L18.4987 18.6663H13.4987C13.0853 18.6663 12.6867 18.5127 12.3803 18.2353C12.0738 17.9578 11.8814 17.5764 11.8404 17.1651L14.6266 14.3776L14.6708 14.338ZM18.4987 10.333C18.9263 10.333 19.3375 10.4974 19.6474 10.7921C19.9572 11.0868 20.1419 11.4893 20.1633 11.9163L20.1654 11.9997V15.9934L18.7933 14.6218L18.7308 14.5647C18.2074 14.1084 17.5433 14.1076 17.0241 14.5576L16.9599 14.6159L16.832 14.7434L15.8766 13.7884L15.8141 13.7313C15.2908 13.2751 14.6266 13.2743 14.1074 13.7243L14.0433 13.7826L11.832 15.9934V11.9997C11.832 11.5721 11.9964 11.1608 12.2911 10.851C12.5858 10.5412 12.9883 10.3565 13.4154 10.3351L13.4987 10.333H18.4987ZM17.2529 12.4163L17.1999 12.4193C17.0987 12.4313 17.0053 12.4801 16.9376 12.5563C16.8699 12.6326 16.8325 12.731 16.8325 12.833C16.8325 12.935 16.8699 13.0334 16.9376 13.1097C17.0053 13.1859 17.0987 13.2347 17.1999 13.2468L17.2487 13.2497L17.3016 13.2468C17.4029 13.2347 17.4962 13.1859 17.5639 13.1097C17.6317 13.0334 17.6691 12.935 17.6691 12.833C17.6691 12.731 17.6317 12.6326 17.5639 12.5563C17.4962 12.4801 17.4029 12.4313 17.3016 12.4193L17.2529 12.4163Z" fill="white"/>
</g>
<defs>
<filter id="filter0_d_2254_14025" x="0" y="0.5" width="32" height="32" filterUnits="userSpaceOnUse" color-interpolation-filters="sRGB">
<feFlood flood-opacity="0" result="BackgroundImageFix"/>
<feColorMatrix in="SourceAlpha" type="matrix" values="0 0 0 0 0 0 0 0 0 0 0 0 0 0 0 0 0 0 127 0" result="hardAlpha"/>
<feOffset dy="2"/>
<feGaussianBlur stdDeviation="2"/>
<feComposite in2="hardAlpha" operator="out"/>
<feColorMatrix type="matrix" values="0 0 0 0 0.216147 0 0 0 0 0.216147 0 0 0 0 0.250236 0 0 0 0.03 0"/>
<feBlend mode="normal" in2="BackgroundImageFix" result="effect1_dropShadow_2254_14025"/>
<feBlend mode="normal" in="SourceGraphic" in2="effect1_dropShadow_2254_14025" result="shape"/>
</filter>
</defs>
</svg>
