<svg width="24" height="25" viewBox="0 0 24 25" fill="none" xmlns="http://www.w3.org/2000/svg">
<g clip-path="url(#clip0_2479_2514)">
<path d="M14.234 19.5C15.099 19.5 15.556 20.524 14.979 21.168C14.6042 21.5875 14.1449 21.9229 13.6314 22.1525C13.1178 22.3821 12.5615 22.5005 11.999 22.5C11.4365 22.5005 10.8802 22.3821 10.3666 22.1525C9.85307 21.9229 9.39382 21.5875 9.01899 21.168C8.46699 20.552 8.86099 19.589 9.65299 19.507L9.76299 19.501L14.234 19.5Z" fill="#34343D"/>
<path d="M12.0019 2.5C13.3599 2.5 14.5079 3.403 14.8769 4.641L14.9229 4.812L14.9309 4.855C16.0333 5.4769 16.9727 6.3511 17.6721 7.406C18.3716 8.4609 18.8112 9.66648 18.9549 10.924L18.9829 11.211L19.0019 11.5V14.431L19.0229 14.567C19.1598 15.3038 19.5676 15.9627 20.1659 16.414L20.3329 16.531L20.4949 16.63C21.3549 17.117 21.0549 18.396 20.1179 18.494L20.0019 18.5H4.0019C2.9739 18.5 2.6149 17.136 3.5089 16.63C3.88993 16.4144 4.21915 16.118 4.47344 15.7616C4.72773 15.4052 4.90094 14.9974 4.9809 14.567L5.0019 14.424L5.0029 11.454C5.06387 10.1479 5.44406 8.87661 6.11019 7.75147C6.77631 6.62632 7.70807 5.68161 8.8239 5L9.0719 4.854L9.0819 4.811C9.22336 4.21303 9.54485 3.67284 10.003 3.26334C10.4611 2.85384 11.0339 2.59473 11.6439 2.521L11.8259 2.504L12.0019 2.5Z" fill="#34343D"/>
</g>
<defs>
<clipPath id="clip0_2479_2514">
<rect width="24" height="24" fill="white" transform="translate(0 0.5)"/>
</clipPath>
</defs>
</svg>
