<svg width="24" height="25" viewBox="0 0 24 25" fill="none" xmlns="http://www.w3.org/2000/svg">
<path d="M6.99512 18.4014C6.97243 18.1724 6.87117 17.9571 6.70703 17.793C6.54289 17.6288 6.32763 17.5276 6.09863 17.5049L6 17.5C5.73478 17.5 5.48051 17.6054 5.29297 17.793C5.10543 17.9805 5 18.2348 5 18.5L5.00488 18.5986C5.02757 18.8276 5.12883 19.0429 5.29297 19.207C5.48051 19.3946 5.73478 19.5 6 19.5C6.26522 19.5 6.51949 19.3946 6.70703 19.207C6.89457 19.0195 7 18.7652 7 18.5L6.99512 18.4014ZM8.98535 18.7969C8.91709 19.4835 8.61329 20.1289 8.12109 20.6211C7.55849 21.1837 6.79565 21.5 6 21.5C5.20435 21.5 4.44151 21.1837 3.87891 20.6211C3.38671 20.1289 3.08291 19.4835 3.01465 18.7969L3 18.5C3 17.7044 3.3163 16.9415 3.87891 16.3789C4.44151 15.8163 5.20435 15.5 6 15.5L6.29688 15.5146C6.98351 15.5829 7.6289 15.8867 8.12109 16.3789C8.6837 16.9415 9 17.7044 9 18.5L8.98535 18.7969Z" fill="black"/>
<path d="M19 18.5C19 18.2348 18.8946 17.9805 18.707 17.793C18.5429 17.6288 18.3276 17.5276 18.0986 17.5049L18 17.5C17.7348 17.5 17.4805 17.6054 17.293 17.793C17.1054 17.9805 17 18.2348 17 18.5L17.0049 18.5986C17.0276 18.8276 17.1288 19.0429 17.293 19.207C17.4805 19.3946 17.7348 19.5 18 19.5C18.2652 19.5 18.5195 19.3946 18.707 19.207C18.8946 19.0195 19 18.7652 19 18.5ZM21 18.5C21 19.2957 20.6837 20.0585 20.1211 20.6211C19.5585 21.1837 18.7957 21.5 18 21.5C17.2043 21.5 16.4415 21.1837 15.8789 20.6211C15.3867 20.1289 15.0829 19.4835 15.0146 18.7969L15 18.5C15 17.7043 15.3163 16.9415 15.8789 16.3789C16.4415 15.8163 17.2043 15.5 18 15.5L18.2969 15.5146C18.9835 15.5829 19.6289 15.8867 20.1211 16.3789C20.6837 16.9415 21 17.7043 21 18.5Z" fill="black"/>
<path d="M17 12.5V10.5C17 9.17392 16.4728 7.90253 15.5352 6.96484C14.6561 6.08579 13.4838 5.56719 12.248 5.50586L12 5.5C10.6739 5.5 9.40253 6.02716 8.46484 6.96484C7.52716 7.90253 7 9.17392 7 10.5V12.5C7 13.0523 6.55228 13.5 6 13.5C5.44772 13.5 5 13.0523 5 12.5V10.5C5 8.64348 5.73705 6.86256 7.0498 5.5498C8.36256 4.23705 10.1435 3.5 12 3.5L12.3467 3.50879C14.077 3.59452 15.7194 4.319 16.9502 5.5498C18.2629 6.86256 19 8.64349 19 10.5V12.5C19 13.0523 18.5523 13.5 18 13.5C17.4477 13.5 17 13.0523 17 12.5Z" fill="black"/>
<path d="M20.293 8.79297C20.6835 8.40244 21.3165 8.40244 21.707 8.79297C22.0976 9.18349 22.0976 9.81651 21.707 10.207L18.707 13.207C18.3165 13.5976 17.6835 13.5976 17.293 13.207L14.293 10.207C13.9024 9.81651 13.9024 9.18349 14.293 8.79297C14.6835 8.40244 15.3165 8.40244 15.707 8.79297L18 11.0859L20.293 8.79297Z" fill="black"/>
</svg>
