<svg width="24" height="25" viewBox="0 0 24 25" fill="none" xmlns="http://www.w3.org/2000/svg">
  <path d="M6.29289 6.79289C6.68342 6.40237 7.31643 6.40237 7.70696 6.79289L12.707 11.7929C13.0975 12.1834 13.0975 12.8164 12.707 13.207L7.70696 18.207C7.31643 18.5975 6.68342 18.5975 6.29289 18.207C5.90237 17.8164 5.90237 17.1834 6.29289 16.7929L10.5859 12.4999L6.29289 8.20696C5.90237 7.81643 5.90237 7.18342 6.29289 6.79289Z" fill="black"/>
  <path d="M12.2929 6.79289C12.6834 6.40237 13.3164 6.40237 13.707 6.79289L18.707 11.7929C19.0975 12.1834 19.0975 12.8164 18.707 13.207L13.707 18.207C13.3164 18.5975 12.6834 18.5975 12.2929 18.207C11.9024 17.8164 11.9024 17.1834 12.2929 16.7929L16.5859 12.4999L12.2929 8.20696C11.9024 7.81643 11.9024 7.18342 12.2929 6.79289Z" fill="black"/>
</svg>
