<svg width="16" height="17" viewBox="0 0 16 17" fill="none" xmlns="http://www.w3.org/2000/svg">
<g clip-path="url(#clip0_2479_915)">
<path d="M4.12807 3.73022C6.70816 2.06675 10.2656 2.26604 12.5962 4.25366C15.0333 6.33288 15.381 9.73827 13.3644 12.1853C11.426 14.5374 7.91563 15.2596 5.05581 13.9874L2.13914 14.6085C1.90528 14.6582 1.6624 14.5791 1.50307 14.4008C1.34387 14.2225 1.29272 13.9726 1.36831 13.7458L2.13458 11.4444C0.603059 8.87744 1.35041 5.69279 3.88133 3.89689L4.12807 3.73022ZM11.7309 5.26798C9.79672 3.61847 6.75827 3.4908 4.65281 4.98413C2.57696 6.45712 2.08662 9.01287 3.41909 10.9835C3.53514 11.1552 3.56534 11.3709 3.49982 11.5675L3.00112 13.0616L4.99526 12.6378L5.10463 12.6241C5.21469 12.6193 5.32482 12.6419 5.42495 12.6905C7.80715 13.8469 10.7672 13.2395 12.3351 11.337C13.8731 9.4707 13.6338 6.8914 11.7309 5.26798Z" fill="#A9A9B1"/>
</g>
<defs>
<clipPath id="clip0_2479_915">
<rect width="16" height="16" fill="white" transform="translate(0 0.623047)"/>
</clipPath>
</defs>
</svg>
