<svg width="24" height="25" viewBox="0 0 24 25" fill="none" xmlns="http://www.w3.org/2000/svg">
<path d="M6.99504 18.4014C6.97235 18.1724 6.8711 17.9571 6.70696 17.793C6.54281 17.6288 6.32756 17.5276 6.09856 17.5049L5.99992 17.5C5.73471 17.5 5.48043 17.6054 5.29289 17.793C5.10536 17.9805 4.99992 18.2348 4.99992 18.5L5.00481 18.5986C5.0275 18.8276 5.12875 19.0429 5.29289 19.207C5.48043 19.3946 5.73471 19.5 5.99992 19.5C6.26514 19.5 6.51942 19.3946 6.70696 19.207C6.89449 19.0195 6.99992 18.7652 6.99992 18.5L6.99504 18.4014ZM8.98528 18.7969C8.91702 19.4835 8.61322 20.1289 8.12102 20.6211C7.55841 21.1837 6.79557 21.5 5.99992 21.5C5.20427 21.5 4.44144 21.1837 3.87883 20.6211C3.38663 20.1289 3.08283 19.4835 3.01457 18.7969L2.99992 18.5C2.99992 17.7044 3.31622 16.9415 3.87883 16.3789C4.44144 15.8163 5.20427 15.5 5.99992 15.5L6.2968 15.5146C6.98344 15.5829 7.62882 15.8867 8.12102 16.3789C8.68363 16.9415 8.99992 17.7044 8.99992 18.5L8.98528 18.7969Z" fill="black"/>
<path d="M18.9999 18.5C18.9999 18.2348 18.8945 17.9805 18.707 17.793C18.5428 17.6288 18.3276 17.5276 18.0986 17.5049L17.9999 17.5C17.7347 17.5 17.4804 17.6054 17.2929 17.793C17.1054 17.9805 16.9999 18.2348 16.9999 18.5L17.0048 18.5986C17.0275 18.8276 17.1287 19.0429 17.2929 19.207C17.4804 19.3946 17.7347 19.5 17.9999 19.5C18.2651 19.5 18.5194 19.3946 18.707 19.207C18.8945 19.0195 18.9999 18.7652 18.9999 18.5ZM20.9999 18.5C20.9999 19.2957 20.6836 20.0585 20.121 20.6211C19.5584 21.1837 18.7956 21.5 17.9999 21.5C17.2043 21.5 16.4414 21.1837 15.8788 20.6211C15.3866 20.1289 15.0828 19.4835 15.0146 18.7969L14.9999 18.5C14.9999 17.7043 15.3162 16.9415 15.8788 16.3789C16.4414 15.8163 17.2043 15.5 17.9999 15.5L18.2968 15.5146C18.9834 15.5829 19.6288 15.8867 20.121 16.3789C20.6836 16.9415 20.9999 17.7043 20.9999 18.5Z" fill="black"/>
<path d="M6.99992 12.5V10.5C6.99992 9.17392 7.52709 7.90253 8.46477 6.96484C9.34382 6.08579 10.5161 5.56719 11.7519 5.50586L11.9999 5.5C13.326 5.5 14.5974 6.02716 15.5351 6.96484C16.4728 7.90253 16.9999 9.17392 16.9999 10.5V12.5C16.9999 13.0523 17.4476 13.5 17.9999 13.5C18.5522 13.5 18.9999 13.0523 18.9999 12.5V10.5C18.9999 8.64348 18.2629 6.86256 16.9501 5.5498C15.6374 4.23705 13.8564 3.5 11.9999 3.5L11.6532 3.50879C9.92295 3.59452 8.28054 4.319 7.04973 5.5498C5.73697 6.86256 4.99992 8.64349 4.99992 10.5V12.5C4.99992 13.0523 5.44764 13.5 5.99992 13.5C6.55221 13.5 6.99992 13.0523 6.99992 12.5Z" fill="black"/>
<path d="M3.70696 8.79297C3.31643 8.40244 2.68342 8.40244 2.29289 8.79297C1.90237 9.18349 1.90237 9.81651 2.29289 10.207L5.29289 13.207C5.68342 13.5976 6.31643 13.5976 6.70696 13.207L9.70696 10.207C10.0975 9.81651 10.0975 9.18349 9.70696 8.79297C9.31643 8.40244 8.68342 8.40244 8.29289 8.79297L5.99992 11.0859L3.70696 8.79297Z" fill="black"/>
</svg>
