<svg width="24" height="25" viewBox="0 0 24 25" fill="none" xmlns="http://www.w3.org/2000/svg">
<path d="M12.9999 12.5C12.9999 12.2348 12.8945 11.9805 12.707 11.793C12.5194 11.6054 12.2651 11.5 11.9999 11.5C11.7347 11.5 11.4804 11.6054 11.2929 11.793C11.1054 11.9805 10.9999 12.2348 10.9999 12.5C10.9999 12.7652 11.1054 13.0195 11.2929 13.207C11.4804 13.3946 11.7347 13.5 11.9999 13.5C12.2651 13.5 12.5194 13.3946 12.707 13.207C12.8945 13.0195 12.9999 12.7652 12.9999 12.5ZM14.9999 12.5C14.9999 13.2957 14.6836 14.0585 14.121 14.6211C13.5584 15.1837 12.7956 15.5 11.9999 15.5C11.2043 15.5 10.4414 15.1837 9.87884 14.6211C9.31623 14.0585 8.99993 13.2957 8.99993 12.5C8.99993 11.7043 9.31623 10.9415 9.87884 10.3789C10.4414 9.8163 11.2043 9.5 11.9999 9.5C12.7956 9.5 13.5584 9.8163 14.121 10.3789C14.6836 10.9415 14.9999 11.7043 14.9999 12.5Z" fill="black"/>
<path d="M11.9999 5.5C16.0554 5.5 19.3377 7.78597 21.8574 11.9854C22.0474 12.302 22.0474 12.698 21.8574 13.0146C19.3377 17.214 16.0554 19.5 11.9999 19.5C7.94442 19.5 4.66218 17.214 2.14251 13.0146C1.9525 12.698 1.9525 12.302 2.14251 11.9854C4.66218 7.78597 7.94442 5.5 11.9999 5.5ZM11.9999 7.5C9.00117 7.5 6.39097 9.05916 4.17766 12.5C6.39097 15.9408 9.00117 17.5 11.9999 17.5C14.9986 17.5 17.608 15.9405 19.8212 12.5C17.608 9.05947 14.9986 7.5 11.9999 7.5Z" fill="black"/>
</svg>
