<svg width="24" height="25" viewBox="0 0 24 25" fill="none" xmlns="http://www.w3.org/2000/svg">
<path d="M18.3281 8C18.3281 7.76007 18.2812 7.52245 18.1895 7.30078C18.0976 7.07895 17.9628 6.87682 17.793 6.70703C17.6234 6.53747 17.4217 6.40338 17.2002 6.31152C16.9784 6.21964 16.7401 6.17188 16.5 6.17188C16.2599 6.17188 16.0216 6.21964 15.7998 6.31152C15.5783 6.40338 15.3766 6.53747 15.207 6.70703L5 16.9141V19.5H7.58594L17.793 9.29297C17.9627 9.12324 18.0976 8.92193 18.1895 8.7002C18.2813 8.47836 18.3281 8.24012 18.3281 8ZM20.3281 8C20.3281 8.50275 20.2295 9.00133 20.0371 9.46582C19.8447 9.93011 19.5624 10.3516 19.207 10.707L8.70703 21.207C8.5195 21.3946 8.26522 21.5 8 21.5H4C3.44772 21.5 3 21.0523 3 20.5V16.5L3.00488 16.4014C3.02763 16.1725 3.1289 15.957 3.29297 15.793L13.793 5.29297C14.1484 4.93754 14.5707 4.65526 15.0352 4.46289C15.4995 4.27059 15.9974 4.17188 16.5 4.17188C17.0026 4.17187 17.5005 4.27059 17.9648 4.46289C18.4293 4.65526 18.8516 4.93754 19.207 5.29297C19.5625 5.64846 19.8447 6.07068 20.0371 6.53516C20.2295 6.99955 20.3281 7.49735 20.3281 8Z" fill="black"/>
<path d="M12.793 6.29327C13.1835 5.90275 13.8165 5.90275 14.207 6.29327L18.207 10.2933C18.5976 10.6838 18.5976 11.3168 18.207 11.7073C17.8165 12.0979 17.1835 12.0979 16.793 11.7073L12.793 7.70733C12.4024 7.31681 12.4024 6.6838 12.793 6.29327Z" fill="black"/>
<path d="M22 18.5003C22.5523 18.5003 23 18.948 23 19.5003C23 20.0526 22.5523 20.5003 22 20.5003H16C15.4477 20.5003 15 20.0526 15 19.5003C15 18.948 15.4477 18.5003 16 18.5003H22Z" fill="black"/>
</svg>
