<svg width="24" height="25" viewBox="0 0 24 25" fill="none" xmlns="http://www.w3.org/2000/svg">
<path d="M8.99938 12.501C8.99936 11.7056 9.315 10.9425 9.87731 10.3799C10.2678 9.9893 10.9018 9.98944 11.2923 10.3799C11.6826 10.7704 11.6826 11.4035 11.2923 11.794C11.1049 11.9815 10.9994 12.2358 10.9994 12.501C10.9994 12.7662 11.1048 13.0205 11.2923 13.208C11.4799 13.3955 11.7342 13.501 11.9994 13.501C12.2645 13.5009 12.5189 13.3955 12.7064 13.208C13.0968 12.8174 13.7299 12.8176 14.1205 13.208C14.511 13.5985 14.5118 14.2315 14.1214 14.6221C13.559 15.1847 12.7959 15.5007 12.0004 15.501C11.2047 15.5011 10.441 15.1855 9.87828 14.6231C9.31557 14.0605 8.99952 13.2966 8.99938 12.501Z" fill="black"/>
<path d="M6.7929 6.97548C7.26241 6.68466 7.87903 6.83018 8.16985 7.2997C8.46049 7.76911 8.31587 8.38483 7.84661 8.67568C6.5343 9.48852 5.30568 10.747 4.17766 12.4999C6.39097 15.9408 9.00116 17.4999 11.9999 17.4999H12.0068C13.4715 17.5095 14.9086 17.102 16.1503 16.3251C16.6184 16.0322 17.2353 16.1745 17.5282 16.6425C17.8212 17.1107 17.6791 17.7275 17.2109 18.0204C15.6491 18.9975 13.842 19.5098 11.9999 19.4989H11.997C11.9958 19.4989 11.9943 19.4999 11.9931 19.4999C7.94072 19.4973 4.66077 17.2116 2.14251 13.0145C1.9525 12.6979 1.9525 12.3019 2.14251 11.9852C3.47214 9.76924 5.01442 8.07712 6.7929 6.97548ZM12.0019 5.50087C16.0565 5.5016 19.3381 7.78655 21.8574 11.9852C22.0474 12.3019 22.0474 12.6979 21.8574 13.0145C21.1603 14.1762 20.405 15.193 19.5888 16.0565C19.2094 16.4579 18.5761 16.4759 18.1747 16.0966C17.7736 15.7172 17.7564 15.0848 18.1357 14.6835C18.7207 14.0645 19.2821 13.3366 19.8212 12.4989C17.6081 9.05888 14.9984 7.49989 11.9999 7.49989H11.997C11.4534 7.49852 10.9106 7.5522 10.3779 7.66005C9.83689 7.7693 9.3099 7.41966 9.20012 6.8788C9.09056 6.33756 9.44018 5.80976 9.98137 5.70009C10.6457 5.5656 11.3221 5.4993 11.9999 5.50087H12.0019Z" fill="black"/>
<path d="M2.2929 2.79289C2.68342 2.40237 3.31644 2.40237 3.70696 2.79289L21.707 20.7929C22.0975 21.1834 22.0975 21.8164 21.707 22.207C21.3164 22.5975 20.6834 22.5975 20.2929 22.207L2.2929 4.20696C1.90237 3.81643 1.90237 3.18342 2.2929 2.79289Z" fill="black"/>
</svg>
