<svg width="24" height="25" viewBox="0 0 24 25" fill="none" xmlns="http://www.w3.org/2000/svg">
<path d="M6.17884 3.76829C6.96848 3.51851 7.80159 3.43533 8.62512 3.52318C9.44858 3.61106 10.2449 3.86832 10.964 4.27903C11.3381 4.4927 11.6867 4.74603 12.005 5.03294C12.3231 4.74937 12.6712 4.49968 13.0441 4.2888C13.7627 3.88238 14.5578 3.62883 15.379 3.54368C16.2003 3.45857 17.0307 3.54326 17.8175 3.79368C18.6043 4.04412 19.3312 4.45457 19.9523 4.99876C20.5732 5.54292 21.0753 6.20972 21.4269 6.95677C21.7784 7.70378 21.9718 8.51533 21.9952 9.34056C22.0187 10.1659 21.8712 10.9877 21.5626 11.7536C21.2541 12.5193 20.7912 13.2133 20.2023 13.7917C20.1842 13.8095 20.1646 13.8254 20.1456 13.8415L12.7052 21.2107C12.3155 21.5967 11.6877 21.5966 11.298 21.2107L3.79798 13.7829V13.782C3.2075 13.2056 2.74174 12.5141 2.43079 11.7497C2.11869 10.9825 1.96855 10.1588 1.99036 9.33079C2.0122 8.50284 2.2057 7.68791 2.55774 6.93821C2.9098 6.18867 3.41318 5.51983 4.03626 4.97435C4.65944 4.42881 5.38917 4.01812 6.17884 3.76829ZM8.41223 5.51146C7.8633 5.45296 7.30771 5.509 6.78137 5.67552C6.25512 5.84209 5.76897 6.11565 5.35364 6.47923C4.93816 6.84297 4.60203 7.28896 4.36731 7.7888C4.13266 8.28855 4.00394 8.83162 3.98938 9.38353C3.97484 9.93543 4.07534 10.4844 4.28333 10.9958C4.46543 11.4435 4.72707 11.8541 5.05481 12.2077L5.19837 12.3562L5.2052 12.362L12.0011 19.0925L18.798 12.362C18.812 12.3482 18.8263 12.3349 18.8409 12.322C19.2139 11.9448 19.5098 11.498 19.7081 11.0056C19.9137 10.4951 20.0119 9.94732 19.9962 9.3972C19.9805 8.84717 19.8516 8.30623 19.6173 7.80833C19.3829 7.31024 19.0479 6.86546 18.6339 6.50267C18.22 6.13997 17.7355 5.86688 17.2111 5.69993C16.6865 5.53298 16.1326 5.4762 15.5851 5.53294C15.0377 5.58972 14.5075 5.75812 14.0284 6.02903C13.5494 6.29995 13.1317 6.6673 12.8009 7.10716C12.6114 7.35917 12.3135 7.50745 11.9982 7.50657C11.683 7.50556 11.3864 7.3562 11.1984 7.10325C10.869 6.66013 10.4522 6.28923 9.97278 6.01536C9.49328 5.74148 8.96132 5.57003 8.41223 5.51146Z" fill="black"/>
</svg>
