<svg width="24" height="25" viewBox="0 0 24 25" fill="none" xmlns="http://www.w3.org/2000/svg">
<path d="M2 16.5V15.6768C1.99995 15.1418 2.1428 14.6164 2.41406 14.1553C2.68539 13.6941 3.07523 13.3136 3.54297 13.0537L11.5146 8.62598C11.9974 8.35789 12.6059 8.5319 12.874 9.01465C13.1421 9.49742 12.9681 10.1059 12.4854 10.374L4.51465 14.8018C4.35873 14.8883 4.22816 15.0152 4.1377 15.1689C4.04723 15.3227 3.99995 15.4984 4 15.6768V16.5L4.00488 16.5986C4.02757 16.8276 4.12883 17.0429 4.29297 17.207C4.48051 17.3946 4.73478 17.5 5 17.5H6C6.55228 17.5 7 17.9477 7 18.5C7 19.0523 6.55228 19.5 6 19.5H5C4.20435 19.5 3.44151 19.1837 2.87891 18.6211C2.3163 18.0585 2 17.2956 2 16.5Z" fill="black"/>
<path d="M13 5.5C13 5.23478 12.8946 4.98051 12.707 4.79297C12.5429 4.62883 12.3276 4.52757 12.0986 4.50488L12 4.5C11.7348 4.5 11.4805 4.60543 11.293 4.79297C11.1054 4.98051 11 5.23478 11 5.5C11.0071 6.97677 11.4733 8.06279 12.4863 8.62598L20.457 13.0537C20.9248 13.3136 21.3146 13.6941 21.5859 14.1553C21.8572 14.6164 22.0001 15.1418 22 15.6768V16.5C22 17.2957 21.6837 18.0585 21.1211 18.6211C20.5585 19.1837 19.7957 19.5 19 19.5H18C17.4477 19.5 17 19.0523 17 18.5C17 17.9477 17.4477 17.5 18 17.5H19C19.2652 17.5 19.5195 17.3946 19.707 17.207C19.8946 17.0195 20 16.7652 20 16.5V15.6768L19.9912 15.5439C19.9736 15.4122 19.9302 15.2843 19.8623 15.1689C19.7718 15.0152 19.6413 14.8883 19.4854 14.8018L11.5146 10.374C9.6149 9.3177 9.00779 7.35889 9 5.50391V5.5C9 4.70435 9.3163 3.94151 9.87891 3.37891C10.4415 2.8163 11.2044 2.5 12 2.5L12.2969 2.51465C12.9835 2.58291 13.6289 2.88671 14.1211 3.37891C14.6837 3.94151 15 4.70435 15 5.5C15 6.05228 14.5523 6.5 14 6.5C13.4477 6.5 13 6.05228 13 5.5Z" fill="black"/>
<path d="M17 18.5C17 18.2348 16.8946 17.9805 16.707 17.793C16.5195 17.6054 16.2652 17.5 16 17.5H8C7.73478 17.5 7.48051 17.6054 7.29297 17.793C7.10543 17.9805 7 18.2348 7 18.5V19.5L7.00488 19.5986C7.02757 19.8276 7.12883 20.0429 7.29297 20.207C7.48051 20.3946 7.73478 20.5 8 20.5H16C16.2652 20.5 16.5195 20.3946 16.707 20.207C16.8946 20.0195 17 19.7652 17 19.5V18.5ZM19 19.5C19 20.2957 18.6837 21.0585 18.1211 21.6211C17.5585 22.1837 16.7957 22.5 16 22.5H8C7.20435 22.5 6.44151 22.1837 5.87891 21.6211C5.3163 21.0585 5 20.2957 5 19.5V18.5C5 17.7044 5.3163 16.9415 5.87891 16.3789C6.44151 15.8163 7.20435 15.5 8 15.5H16L16.2969 15.5146C16.9835 15.5829 17.6289 15.8867 18.1211 16.3789C18.6837 16.9415 19 17.7043 19 18.5V19.5Z" fill="black"/>
</svg>
