<svg width="24" height="25" viewBox="0 0 24 25" fill="none" xmlns="http://www.w3.org/2000/svg">
<path d="M6.9801 3.57352C7.86517 3.42272 8.77279 3.47247 9.63607 3.71909C10.4993 3.96572 11.2963 4.40294 11.9681 4.99852L12.0051 5.03152L12.0391 5.00152C12.6803 4.43882 13.4341 4.01932 14.2503 3.77101C15.0664 3.52269 15.9262 3.45128 16.7721 3.56152L17.0181 3.59752C18.0844 3.78163 19.0811 4.25068 19.9026 4.95499C20.7241 5.65931 21.3398 6.57267 21.6845 7.59836C22.0293 8.62405 22.0903 9.72388 21.861 10.7814C21.6317 11.8389 21.1207 12.8147 20.3821 13.6055L20.2021 13.7905L20.1541 13.8315L12.7041 21.2105C12.5322 21.3807 12.3044 21.4828 12.063 21.4978C11.8216 21.5129 11.5829 21.44 11.3911 21.2925L11.2971 21.2105L3.8041 13.7885C3.01032 13.0162 2.4458 12.0392 2.17306 10.9658C1.90032 9.89238 1.93 8.76442 2.25882 7.70684C2.58764 6.64926 3.20276 5.70332 4.03607 4.9738C4.86937 4.24427 5.88833 3.75962 6.9801 3.57352Z" fill="black"/>
</svg>
