<svg width="24" height="25" viewBox="0 0 24 25" fill="none" xmlns="http://www.w3.org/2000/svg">
<g clip-path="url(#clip0_2212_15497)">
<path d="M0 12.5C0 5.8726 5.3726 0.5 12 0.5C18.6274 0.5 24 5.8726 24 12.5C24 19.1274 18.6274 24.5 12 24.5C5.3726 24.5 0 19.1274 0 12.5Z" fill="#FFE812"/>
<path d="M12 6C7.5817 6 4 8.8241 4 12.3077C4 14.5599 5.4974 16.5361 7.74985 17.6521C7.6273 18.0747 6.9624 20.3709 6.9359 20.5513C6.9359 20.5513 6.92 20.6868 7.00775 20.7385C7.09555 20.7901 7.19875 20.75 7.19875 20.75C7.45045 20.7149 10.1175 18.8415 10.5791 18.5162C11.0403 18.5815 11.5151 18.6154 12 18.6154C16.4183 18.6154 20 15.7914 20 12.3077C20 8.8241 16.4183 6 12 6Z" fill="#381F1F"/>
<path d="M8.75781 10.4229C9.00751 10.4229 9.21094 10.6259 9.21094 10.875C9.2108 11.124 9.00738 11.3271 8.75781 11.3271H8.03711V14.0684C8.03711 14.3114 7.83065 14.5097 7.57617 14.5098C7.32162 14.5098 7.11426 14.3115 7.11426 14.0684V11.3271H6.39453C6.14486 11.3271 5.94154 11.124 5.94141 10.875C5.94141 10.6258 6.14483 10.4229 6.39453 10.4229H8.75781ZM10.3066 10.4229C10.608 10.4298 10.8439 10.6575 10.9219 10.8789L12.0254 13.7832C12.1658 14.2195 12.0433 14.381 11.916 14.4395C11.824 14.4814 11.7242 14.503 11.623 14.5029C11.4308 14.5029 11.2838 14.4253 11.2393 14.2998L11.0107 13.7012H9.60352L9.37402 14.2998C9.32974 14.4252 9.18264 14.5029 8.99023 14.5029C8.88909 14.503 8.78922 14.4815 8.69727 14.4395C8.57002 14.3808 8.44774 14.2195 8.58789 13.7842L9.69141 10.8789C9.76921 10.6579 10.006 10.4297 10.3066 10.4229ZM15.332 10.4229C15.5866 10.4229 15.7939 10.6302 15.7939 10.8848V11.876L17.082 10.5889C17.1482 10.5227 17.2391 10.4863 17.3379 10.4863C17.453 10.4864 17.5686 10.5356 17.6553 10.6221C17.7361 10.7029 17.7844 10.8071 17.791 10.915C17.7977 11.0238 17.7617 11.124 17.6895 11.1963L16.6377 12.2471L17.7734 13.7529C17.8101 13.8012 17.8374 13.8564 17.8525 13.915C17.8677 13.9736 17.8709 14.0348 17.8623 14.0947C17.8541 14.1547 17.8334 14.2124 17.8027 14.2646C17.772 14.3169 17.7311 14.3621 17.6826 14.3984C17.6028 14.4591 17.5056 14.4924 17.4053 14.4922C17.3338 14.4925 17.2632 14.4762 17.1992 14.4443C17.1352 14.4125 17.0799 14.3658 17.0371 14.3086L15.9541 12.874L15.7939 13.0342V14.042C15.7937 14.1643 15.7456 14.2817 15.6592 14.3682C15.5726 14.4547 15.4544 14.5027 15.332 14.5029C15.0777 14.5027 14.8712 14.2963 14.8711 14.042V10.8848C14.8711 10.6304 15.0777 10.4231 15.332 10.4229ZM12.7969 10.4229C13.0566 10.4229 13.2686 10.6302 13.2686 10.8848V13.5957H14.249C14.4928 13.5957 14.6912 13.7855 14.6914 14.0186C14.6914 14.2518 14.493 14.4424 14.249 14.4424H12.7686C12.5246 14.4424 12.3262 14.2518 12.3262 14.0186V10.8848C12.3262 10.6303 12.5372 10.423 12.7969 10.4229ZM9.8457 12.8838H10.7676L10.3066 11.5742L9.8457 12.8838Z" fill="#FFE812"/>
</g>
<defs>
<clipPath id="clip0_2212_15497">
<rect width="24" height="24" fill="white" transform="translate(0 0.5)"/>
</clipPath>
</defs>
</svg>
