<svg width="18" height="19" viewBox="0 0 18 19" fill="none" xmlns="http://www.w3.org/2000/svg">
<path d="M9 2.625C9.16576 2.625 9.32473 2.69085 9.44194 2.80806C9.55915 2.92527 9.625 3.08424 9.625 3.25V3.90937C10.8932 4.05138 12.0754 4.62016 12.9778 5.52243C13.8802 6.4247 14.4491 7.60686 14.5912 8.875H15.25C15.4158 8.875 15.5747 8.94085 15.6919 9.05806C15.8092 9.17527 15.875 9.33424 15.875 9.5C15.875 9.66576 15.8092 9.82473 15.6919 9.94194C15.5747 10.0592 15.4158 10.125 15.25 10.125H14.5906C14.4485 11.3929 13.8798 12.575 12.9776 13.4772C12.0755 14.3795 10.8936 14.9484 9.62563 15.0906L9.625 15.75C9.625 15.9158 9.55915 16.0747 9.44194 16.1919C9.32473 16.3092 9.16576 16.375 9 16.375C8.83424 16.375 8.67527 16.3092 8.55806 16.1919C8.44085 16.0747 8.375 15.9158 8.375 15.75V15.0906C7.10705 14.9485 5.92503 14.3798 5.02279 13.4776C4.12055 12.5755 3.55164 11.3936 3.40937 10.1256L2.75 10.125C2.58424 10.125 2.42527 10.0592 2.30806 9.94194C2.19085 9.82473 2.125 9.66576 2.125 9.5C2.125 9.33424 2.19085 9.17527 2.30806 9.05806C2.42527 8.94085 2.58424 8.875 2.75 8.875H3.40937C3.55151 7.60696 4.12035 6.42486 5.02261 5.52261C5.92486 4.62035 7.10696 4.05151 8.375 3.90937V3.25C8.375 3.08424 8.44085 2.92527 8.55806 2.80806C8.67527 2.69085 8.83424 2.625 9 2.625ZM9 5.125C8.42547 5.125 7.85656 5.23816 7.32576 5.45803C6.79496 5.67789 6.31266 6.00015 5.90641 6.40641C5.50015 6.81266 5.17789 7.29496 4.95803 7.82576C4.73816 8.35656 4.625 8.92547 4.625 9.5C4.625 10.0745 4.73816 10.6434 4.95803 11.1742C5.17789 11.705 5.50015 12.1873 5.90641 12.5936C6.31266 12.9998 6.79496 13.3221 7.32576 13.542C7.85656 13.7618 8.42547 13.875 9 13.875C10.1603 13.875 11.2731 13.4141 12.0936 12.5936C12.9141 11.7731 13.375 10.6603 13.375 9.5C13.375 8.33968 12.9141 7.22688 12.0936 6.40641C11.2731 5.58594 10.1603 5.125 9 5.125ZM9 7C9.49445 7 9.9778 7.14662 10.3889 7.42133C10.8 7.69603 11.1205 8.08648 11.3097 8.54329C11.4989 9.00011 11.5484 9.50277 11.452 9.98773C11.3555 10.4727 11.1174 10.9181 10.7678 11.2678C10.4181 11.6174 9.97268 11.8555 9.48773 11.952C9.00277 12.0484 8.50011 11.9989 8.04329 11.8097C7.58648 11.6205 7.19603 11.3 6.92133 10.8889C6.64662 10.4778 6.5 9.99445 6.5 9.5L6.50313 9.375C6.5352 8.7344 6.81225 8.13063 7.27699 7.68858C7.74173 7.24652 8.3586 7 9 7Z" fill="#696975"/>
</svg>
