<svg width="24" height="25" viewBox="0 0 24 25" fill="none" xmlns="http://www.w3.org/2000/svg">
<path d="M11 11.5098V11.5C11 10.9477 11.4477 10.5 12 10.5C12.5523 10.5 13 10.9477 13 11.5V11.5098C13 12.0621 12.5523 12.5098 12 12.5098C11.4477 12.5098 11 12.0621 11 11.5098Z" fill="black"/>
<path d="M7 11.5098V11.5C7 10.9477 7.44772 10.5 8 10.5C8.55228 10.5 9 10.9477 9 11.5V11.5098C9 12.0621 8.55228 12.5098 8 12.5098C7.44772 12.5098 7 12.0621 7 11.5098Z" fill="black"/>
<path d="M15 11.5098V11.5C15 10.9477 15.4477 10.5 16 10.5C16.5523 10.5 17 10.9477 17 11.5V11.5098C17 12.0621 16.5523 12.5098 16 12.5098C15.4477 12.5098 15 12.0621 15 11.5098Z" fill="black"/>
<path d="M20 7.5C20 6.96957 19.7891 6.46101 19.4141 6.08594C19.039 5.71087 18.5304 5.5 18 5.5H6C5.46957 5.5 4.96101 5.71086 4.58594 6.08594C4.21086 6.46101 4 6.96957 4 7.5V15.5L4.00977 15.6973C4.05515 16.1553 4.25765 16.5858 4.58594 16.9141C4.96101 17.2891 5.46957 17.5 6 17.5H8C8.55228 17.5 9 17.9477 9 18.5V19.7334L12.4854 17.6426L12.6064 17.5811C12.7304 17.528 12.8642 17.5 13 17.5H18L18.1973 17.4902C18.6553 17.4449 19.0858 17.2423 19.4141 16.9141C19.7423 16.5858 19.9449 16.1553 19.9902 15.6973L20 15.5V7.5ZM22 15.5C22 16.5609 21.5783 17.578 20.8281 18.3281C20.078 19.0783 19.0609 19.5 18 19.5H13.2773L8.51465 22.3574C8.20572 22.5428 7.82034 22.5476 7.50684 22.3701C7.19356 22.1926 7 21.8601 7 21.5V19.5H6C4.93913 19.5 3.92202 19.0783 3.17188 18.3281C2.42173 17.578 2 16.5609 2 15.5V7.5C2 6.43913 2.42173 5.42202 3.17188 4.67188C3.92202 3.92173 4.93913 3.5 6 3.5H18C19.0609 3.5 20.078 3.92173 20.8281 4.67188C21.5783 5.42202 22 6.43913 22 7.5V15.5Z" fill="black"/>
</svg>
