<svg width="24" height="25" viewBox="0 0 24 25" fill="none" xmlns="http://www.w3.org/2000/svg">
<g clip-path="url(#clip0_2131_744)">
<path d="M12 3.5C14.3869 3.5 16.6761 4.44821 18.364 6.13604C20.0518 7.82387 21 10.1131 21 12.5C21 12.7449 20.91 12.9813 20.7473 13.1644C20.5845 13.3474 20.3603 13.4643 20.117 13.493L20 13.5H13V18.5C13.0003 18.7549 13.0979 19 13.2728 19.1854C13.4478 19.3707 13.687 19.4822 13.9414 19.4972C14.1958 19.5121 14.4464 19.4293 14.6418 19.2657C14.8373 19.1021 14.9629 18.8701 14.993 18.617L15 18.5C15 18.2348 15.1054 17.9804 15.2929 17.7929C15.4804 17.6054 15.7348 17.5 16 17.5C16.2652 17.5 16.5196 17.6054 16.7071 17.7929C16.8946 17.9804 17 18.2348 17 18.5C17.0008 19.2809 16.697 20.0313 16.1532 20.5918C15.6095 21.1523 14.8686 21.4787 14.088 21.5016C13.3075 21.5245 12.5487 21.2422 11.973 20.7145C11.3973 20.1869 11.0501 19.4556 11.005 18.676L11 18.5V13.5H4C3.75507 13.5 3.51866 13.41 3.33563 13.2473C3.15259 13.0845 3.03566 12.8603 3.007 12.617L3 12.5C3 10.1131 3.94821 7.82387 5.63604 6.13604C7.32387 4.44821 9.61305 3.5 12 3.5Z" fill="black"/>
</g>
<defs>
<clipPath id="clip0_2131_744">
<rect width="24" height="24" fill="white" transform="translate(0 0.5)"/>
</clipPath>
</defs>
</svg>
