<svg width="20" height="21" viewBox="0 0 20 21" fill="none" xmlns="http://www.w3.org/2000/svg">
<g clip-path="url(#clip0_4005_2305)">
<path d="M6.18734 4.02965C7.62763 3.19758 9.30165 2.8622 10.9513 3.07506C12.6009 3.28791 14.1347 4.03695 15.3166 5.20722C16.4985 6.37765 17.2629 7.90458 17.4919 9.55211C17.5551 10.0079 17.2372 10.4287 16.7814 10.4921C16.3257 10.5554 15.905 10.2373 15.8415 9.78161C15.6628 8.49617 15.066 7.30449 14.1439 6.39131C13.2218 5.47831 12.0251 4.89397 10.7381 4.7279C9.45109 4.56183 8.14518 4.82342 7.02148 5.47252C6.2822 5.89962 5.6493 6.47943 5.16032 7.16686H6.66667C7.1269 7.16686 7.5 7.53996 7.5 8.00019C7.49987 8.46032 7.12682 8.83353 6.66667 8.83353H3.33333C2.87318 8.83353 2.50013 8.46032 2.5 8.00019V4.66686C2.5 4.20662 2.8731 3.83353 3.33333 3.83353C3.79357 3.83353 4.16667 4.20662 4.16667 4.66686V5.72887C4.73223 5.05322 5.41427 4.47629 6.18734 4.02965Z" fill="#575765"/>
<path d="M15.8332 16.3334V15.2697C15.2675 15.9457 14.586 16.5237 13.8126 16.9706C12.3723 17.8026 10.6982 18.138 9.04857 17.9252C7.39888 17.7123 5.86524 16.9626 4.68333 15.7922C3.50146 14.6218 2.73701 13.0956 2.50804 11.4481C2.44469 10.9923 2.76267 10.5715 3.21849 10.5082C3.67432 10.4448 4.09505 10.7628 4.15843 11.2186C4.33707 12.504 4.93387 13.6949 5.85602 14.6081C6.77816 15.5213 7.97469 16.1062 9.26178 16.2723C10.5488 16.4384 11.8547 16.1767 12.9784 15.5277C13.7175 15.1007 14.3498 14.5205 14.8388 13.8334H13.3332C12.873 13.8334 12.4999 13.4603 12.4999 13C12.4999 12.5398 12.873 12.1667 13.3332 12.1667H16.6666L16.752 12.1708C17.1721 12.2135 17.4999 12.5686 17.4999 13V16.3334C17.4999 16.7936 17.1268 17.1667 16.6666 17.1667C16.2063 17.1667 15.8332 16.7936 15.8332 16.3334Z" fill="#575765"/>
</g>
<defs>
<clipPath id="clip0_4005_2305">
<rect width="20" height="20" fill="white" transform="translate(0 0.5)"/>
</clipPath>
</defs>
</svg>
