<svg width="24" height="25" viewBox="0 0 24 25" fill="none" xmlns="http://www.w3.org/2000/svg">
<path d="M20.2929 2.79289C20.6834 2.40237 21.3164 2.40237 21.707 2.79289C22.0975 3.18342 22.0975 3.81643 21.707 4.20696L10.707 15.207C10.3164 15.5975 9.68342 15.5975 9.29289 15.207C8.90237 14.8164 8.90237 14.1834 9.29289 13.7929L20.2929 2.79289Z" fill="black"/>
<path d="M20.6611 2.55944C21.0258 2.42784 21.4339 2.51872 21.708 2.79284C21.982 3.067 22.0731 3.47514 21.9414 3.83972L15.4414 21.8397C15.432 21.8658 15.4207 21.8917 15.4092 21.9169C15.2856 22.1864 15.0874 22.4149 14.8379 22.5751C14.5882 22.7353 14.2976 22.8211 14.001 22.8212C13.7042 22.8212 13.4129 22.7354 13.1631 22.5751C12.9228 22.4208 12.7308 22.2028 12.6064 21.9462V21.9471L9.25488 15.245L2.55371 11.8944L2.55469 11.8934C2.2979 11.769 2.07914 11.5773 1.9248 11.3368C1.76465 11.0871 1.67969 10.7965 1.67969 10.4999C1.67969 10.2032 1.76465 9.91267 1.9248 9.66296L1.98828 9.57116C2.14311 9.3642 2.34795 9.19886 2.58398 9.09069C2.60917 9.07915 2.63507 9.06885 2.66113 9.05944L20.6611 2.55944ZM4.37207 10.5673L10.4482 13.6053L10.5859 13.6893C10.716 13.7833 10.822 13.9077 10.8945 14.0526L13.9316 20.1278L19.3359 5.16393L4.37207 10.5673Z" fill="black"/>
</svg>
