<svg width="24" height="25" viewBox="0 0 24 25" fill="none" xmlns="http://www.w3.org/2000/svg">
  <path d="M17.2929 5.79289C17.6834 5.40237 18.3164 5.40237 18.707 5.79289C19.0975 6.18342 19.0975 6.81643 18.707 7.20696L6.70696 19.207C6.31643 19.5975 5.68342 19.5975 5.29289 19.207C4.90237 18.8164 4.90237 18.1834 5.29289 17.7929L17.2929 5.79289Z" fill="black"/>
  <path d="M5.29289 5.79289C5.68342 5.40237 6.31643 5.40237 6.70696 5.79289L18.707 17.7929C19.0975 18.1834 19.0975 18.8164 18.707 19.207C18.3164 19.5975 17.6834 19.5975 17.2929 19.207L5.29289 7.20696C4.90237 6.81643 4.90237 6.18342 5.29289 5.79289Z" fill="black"/>
</svg>
