<svg width="24" height="25" viewBox="0 0 24 25" fill="none" xmlns="http://www.w3.org/2000/svg">
  <path d="M20.6162 15.3676L20.5867 15.2378C20.5487 15.1104 20.4858 14.9909 20.4007 14.8876C20.2874 14.7499 20.1385 14.645 19.971 14.5839L11.9273 11.6478L5.18461 16.9258C5.04415 17.0357 4.93504 17.1815 4.86974 17.3474C4.80444 17.5135 4.78522 17.6943 4.81317 17.8705L4.94196 18.6837C4.98345 18.9456 5.12736 19.1803 5.34192 19.3362C5.55649 19.492 5.82413 19.5564 6.08608 19.5149L19.9137 17.3248C20.1757 17.2833 20.4103 17.1394 20.5662 16.9249C20.7221 16.7103 20.7865 16.4427 20.745 16.1807L20.6162 15.3676ZM12.1181 6.40995C12.0766 6.148 11.9327 5.91334 11.7181 5.75745C11.5036 5.60162 11.2359 5.53721 10.974 5.5787C10.7121 5.62022 10.4773 5.76415 10.3215 5.97866C10.1656 6.19321 10.1012 6.46091 10.1427 6.72282C10.3523 8.04591 11.0199 8.9841 12.195 9.6171L20.6573 12.7053C21.1601 12.8888 21.6044 13.2036 21.9446 13.6167C22.2846 14.0298 22.5079 14.5263 22.5916 15.0547L22.7203 15.8678C22.8448 16.6537 22.6517 17.4566 22.1841 18.1003C21.7164 18.744 21.0124 19.1757 20.2266 19.3002L6.39895 21.4903C5.6131 21.6148 4.81017 21.4217 4.16648 20.954C3.52279 20.4863 3.09105 19.7824 2.96658 18.9965L2.8378 18.1834C2.75406 17.655 2.81296 17.1138 3.00875 16.6159C3.20459 16.1179 3.5301 15.6811 3.95144 15.3513L10.0651 10.5655C9.03964 9.67081 8.39682 8.4846 8.16734 7.03569C8.04288 6.24988 8.236 5.44689 8.70361 4.80322C9.17124 4.15957 9.87532 3.72782 10.6611 3.60332C11.4469 3.47886 12.2499 3.67198 12.8936 4.13959C13.5373 4.60726 13.969 5.31123 14.0935 6.09708C14.1799 6.64257 13.8077 7.15481 13.2622 7.2412C12.7168 7.32749 12.2045 6.95537 12.1181 6.40995Z" fill="black"/>
</svg>
