<svg width="24" height="25" viewBox="0 0 24 25" fill="none" xmlns="http://www.w3.org/2000/svg">
<path d="M12.8296 3.09301L12.9207 3.06524L13.0309 3.04446L13.1448 3.03613L13.2617 3.04049L19.5549 3.66888C19.7441 3.68778 19.924 3.76022 20.0734 3.8777C20.2229 3.99518 20.3358 4.15283 20.3989 4.33218L20.4313 4.44379L21.5333 9.32083C21.5872 9.55975 21.5516 9.81016 21.4332 10.0246C21.3148 10.239 21.1218 10.4025 20.8909 10.484L20.7783 10.5166L18.8275 10.9575L20.3703 17.7853C20.4817 18.2774 20.4029 18.7935 20.1498 19.23C19.8967 19.6665 19.4879 19.9912 19.0055 20.139L18.8603 20.1769L9.10621 22.381C8.61408 22.4923 8.09804 22.4136 7.66154 22.1605C7.22504 21.9074 6.90034 21.4986 6.75252 21.0162L6.71459 20.871L5.17176 14.0431L3.22094 14.4839C2.98202 14.5379 2.73161 14.5023 2.51721 14.3839C2.3028 14.2654 2.13931 14.0725 2.05774 13.8415L2.02513 13.7289L0.923104 8.85188C0.88113 8.66641 0.892906 8.47283 0.957049 8.29382C1.02119 8.11481 1.13504 7.9578 1.28525 7.8412L1.38112 7.77546L6.79276 4.50221C6.92836 4.42024 7.0815 4.37166 7.23956 4.36048C7.39761 4.34931 7.55607 4.37585 7.70185 4.43792C7.84764 4.49999 7.97659 4.59582 8.07807 4.71751C8.17956 4.8392 8.25068 4.98326 8.28556 5.13782C8.39768 5.64455 8.70239 6.08786 9.13532 6.37409C9.56824 6.66031 10.0955 6.76704 10.6056 6.67173C11.1158 6.57642 11.5689 6.28653 11.8693 5.8633C12.1697 5.44007 12.2938 4.91665 12.2154 4.40362L12.1713 4.16754L12.1629 4.05357L12.1695 3.91471L12.1897 3.80454L12.2182 3.70379L12.264 3.59809L12.3137 3.50484C12.3564 3.43983 12.4019 3.3824 12.4535 3.32972L12.5355 3.25686L12.6263 3.19124L12.7246 3.13622L12.8296 3.09301Z" fill="black"/>
</svg>
